<svg width="551" height="214" viewBox="0 0 551 214" fill="none" xmlns="http://www.w3.org/2000/svg">
<path d="M266.504 116.332C269.522 157.125 295.647 192.353 332.904 205.939C357.485 214.878 385.746 213.231 408.545 201.511C416.962 197.194 545.508 117.976 547.362 115.93C550.114 112.919 550.075 107.343 547.286 104.605C546.302 103.616 493.917 69.4284 422.583 23.2708C407.591 13.5931 397.182 9.20527 381.992 6.25029C376.525 5.14511 358.753 4.91592 352.65 5.87187C330.735 9.15308 311.894 18.7969 296.353 34.5187C281.149 49.9 271.323 68.972 267.613 90.4796C266.535 96.7886 265.985 109.37 266.504 116.332ZM316.834 99.5066C318.979 87.7506 323.577 79.0153 331.988 70.8465C344.55 58.5351 361.442 54.0395 378.438 58.5698C407.962 66.3656 423.742 100.828 411.133 129.693C404.97 143.812 393.545 153.838 378.535 158.416C374.143 159.739 372.812 159.894 365.062 159.794C357.311 159.694 355.984 159.504 351.628 158.069C342.972 155.198 336.161 150.857 330.153 144.399C318.682 132.237 313.853 115.965 316.834 99.5066Z" fill="#FB0A0A"/>
<rect x="3" y="30" width="262" height="158" fill="#C4C4C4"/>
<rect x="3" y="30" width="262" height="158" fill="#C4C4C4"/>
<rect x="3" y="30" width="262" height="158" fill="#FFF8F8"/>
<rect x="11.9998" y="42.0006" width="244" height="136" fill="#C4C4C4"/>
<rect x="11.9998" y="42.0006" width="244" height="136" fill="#C4C4C4"/>
<rect x="11.9998" y="42.0006" width="244" height="136" fill="#FF0000"/>
<path d="M40.6588 57.0915L51.0225 86.4779H51.4316L61.7952 57.0915H66.227L53.4088 92.0006H49.0452L36.227 57.0915H40.6588ZM79.6588 92.546C77.1361 92.546 74.96 91.9892 73.1304 90.8756C71.3123 89.7506 69.9088 88.1824 68.9202 86.171C67.9429 84.1483 67.4543 81.796 67.4543 79.1142C67.4543 76.4324 67.9429 74.0688 68.9202 72.0233C69.9088 69.9665 71.2838 68.3642 73.0452 67.2165C74.8179 66.0574 76.8861 65.4779 79.2498 65.4779C80.6134 65.4779 81.96 65.7051 83.2895 66.1597C84.6191 66.6142 85.8293 67.3529 86.9202 68.3756C88.0111 69.3869 88.8804 70.7279 89.5282 72.3983C90.1759 74.0688 90.4998 76.1256 90.4998 78.5688V80.2733H70.3179V76.796H86.4088C86.4088 75.3188 86.1134 74.0006 85.5225 72.8415C84.9429 71.6824 84.1134 70.7676 83.0338 70.0972C81.9657 69.4267 80.7043 69.0915 79.2498 69.0915C77.6475 69.0915 76.2611 69.4892 75.0907 70.2847C73.9316 71.0688 73.0395 72.0915 72.4145 73.3529C71.7895 74.6142 71.477 75.9665 71.477 77.4097V79.7279C71.477 81.7051 71.8179 83.3813 72.4998 84.7563C73.1929 86.1199 74.1532 87.1597 75.3804 87.8756C76.6077 88.5801 78.0338 88.9324 79.6588 88.9324C80.7157 88.9324 81.6702 88.7847 82.5225 88.4892C83.3861 88.1824 84.1304 87.7279 84.7554 87.1256C85.3804 86.5119 85.8634 85.7506 86.2043 84.8415L90.0907 85.9324C89.6816 87.2506 88.9941 88.4097 88.0282 89.4097C87.0623 90.3983 85.8691 91.171 84.4486 91.7279C83.0282 92.2733 81.4316 92.546 79.6588 92.546ZM100.642 76.2506V92.0006H96.6191V65.8188H100.505V69.9097H100.846C101.46 68.5801 102.392 67.5119 103.642 66.7051C104.892 65.8869 106.505 65.4779 108.483 65.4779C110.255 65.4779 111.807 65.8415 113.136 66.5688C114.466 67.2847 115.5 68.3756 116.238 69.8415C116.977 71.296 117.346 73.1369 117.346 75.3642V92.0006H113.324V75.6369C113.324 73.5801 112.79 71.9779 111.721 70.8301C110.653 69.671 109.187 69.0915 107.324 69.0915C106.04 69.0915 104.892 69.3699 103.88 69.9267C102.88 70.4835 102.091 71.296 101.511 72.3642C100.932 73.4324 100.642 74.7279 100.642 76.2506ZM136.084 65.8188V69.2279H122.515V65.8188H136.084ZM126.47 59.546H130.493V84.5006C130.493 85.6369 130.657 86.4892 130.987 87.0574C131.328 87.6142 131.76 87.9892 132.282 88.1824C132.817 88.3642 133.379 88.4551 133.97 88.4551C134.413 88.4551 134.777 88.4324 135.061 88.3869C135.345 88.3301 135.572 88.2847 135.743 88.2506L136.561 91.8642C136.288 91.9665 135.907 92.0688 135.419 92.171C134.93 92.2847 134.311 92.3415 133.561 92.3415C132.424 92.3415 131.311 92.0972 130.22 91.6085C129.14 91.1199 128.243 90.3756 127.527 89.3756C126.822 88.3756 126.47 87.1142 126.47 85.5915V59.546ZM149.839 92.6142C148.18 92.6142 146.674 92.3017 145.322 91.6767C143.97 91.0404 142.896 90.1256 142.101 88.9324C141.305 87.7279 140.907 86.2733 140.907 84.5688C140.907 83.0688 141.203 81.8529 141.794 80.921C142.385 79.9779 143.174 79.2392 144.163 78.7051C145.152 78.171 146.243 77.7733 147.436 77.5119C148.64 77.2392 149.851 77.0233 151.067 76.8642C152.657 76.6597 153.947 76.5063 154.936 76.404C155.936 76.2904 156.663 76.1029 157.118 75.8415C157.584 75.5801 157.817 75.1256 157.817 74.4779V74.3415C157.817 72.6597 157.356 71.3529 156.436 70.421C155.527 69.4892 154.146 69.0233 152.294 69.0233C150.373 69.0233 148.868 69.4438 147.777 70.2847C146.686 71.1256 145.919 72.0233 145.476 72.9779L141.657 71.6142C142.339 70.0233 143.248 68.7847 144.385 67.8983C145.532 67.0006 146.782 66.3756 148.135 66.0233C149.498 65.6597 150.839 65.4779 152.157 65.4779C152.998 65.4779 153.964 65.5801 155.055 65.7847C156.157 65.9779 157.22 66.3813 158.243 66.9949C159.277 67.6085 160.135 68.5347 160.817 69.7733C161.498 71.0119 161.839 72.671 161.839 74.7506V92.0006H157.817V88.4551H157.612C157.339 89.0233 156.885 89.6313 156.248 90.279C155.612 90.9267 154.765 91.4779 153.709 91.9324C152.652 92.3869 151.362 92.6142 149.839 92.6142ZM150.453 89.0006C152.044 89.0006 153.385 88.6881 154.476 88.0631C155.578 87.4381 156.407 86.6313 156.964 85.6426C157.532 84.654 157.817 83.6142 157.817 82.5233V78.8415C157.646 79.046 157.271 79.2335 156.692 79.404C156.123 79.5631 155.464 79.7051 154.714 79.8301C153.976 79.9438 153.254 80.046 152.549 80.1369C151.856 80.2165 151.294 80.2847 150.862 80.3415C149.817 80.4779 148.839 80.6994 147.93 81.0063C147.032 81.3017 146.305 81.7506 145.748 82.3529C145.203 82.9438 144.93 83.7506 144.93 84.7733C144.93 86.171 145.447 87.2279 146.481 87.9438C147.527 88.6483 148.851 89.0006 150.453 89.0006ZM48.5679 150.546C46.3861 150.546 44.46 149.995 42.7895 148.893C41.1191 147.779 39.8123 146.211 38.8691 144.188C37.9259 142.154 37.4543 139.751 37.4543 136.978C37.4543 134.228 37.9259 131.841 38.8691 129.819C39.8123 127.796 41.1248 126.234 42.8066 125.131C44.4884 124.029 46.4316 123.478 48.6361 123.478C50.3407 123.478 51.6873 123.762 52.6759 124.33C53.6759 124.887 54.4373 125.523 54.96 126.239C55.4941 126.944 55.9088 127.523 56.2043 127.978H56.5452V115.091H60.5679V150.001H56.6816V145.978H56.2043C55.9088 146.455 55.4884 147.057 54.9429 147.785C54.3975 148.501 53.6191 149.143 52.6077 149.711C51.5963 150.268 50.2498 150.546 48.5679 150.546ZM49.1134 146.932C50.727 146.932 52.0907 146.512 53.2043 145.671C54.3179 144.819 55.1645 143.643 55.7441 142.143C56.3236 140.631 56.6134 138.887 56.6134 136.91C56.6134 134.955 56.3293 133.245 55.7611 131.779C55.1929 130.302 54.352 129.154 53.2384 128.336C52.1248 127.506 50.7498 127.091 49.1134 127.091C47.4088 127.091 45.9884 127.529 44.852 128.404C43.727 129.268 42.8804 130.444 42.3123 131.932C41.7554 133.41 41.477 135.069 41.477 136.91C41.477 138.773 41.7611 140.466 42.3293 141.989C42.9088 143.501 43.7611 144.705 44.8861 145.603C46.0225 146.489 47.4316 146.932 49.1134 146.932ZM79.4713 150.546C76.9486 150.546 74.7725 149.989 72.9429 148.876C71.1248 147.751 69.7213 146.182 68.7327 144.171C67.7554 142.148 67.2668 139.796 67.2668 137.114C67.2668 134.432 67.7554 132.069 68.7327 130.023C69.7213 127.966 71.0963 126.364 72.8577 125.216C74.6304 124.057 76.6986 123.478 79.0623 123.478C80.4259 123.478 81.7725 123.705 83.102 124.16C84.4316 124.614 85.6418 125.353 86.7327 126.376C87.8236 127.387 88.6929 128.728 89.3407 130.398C89.9884 132.069 90.3123 134.126 90.3123 136.569V138.273H70.1304V134.796H86.2213C86.2213 133.319 85.9259 132.001 85.335 130.841C84.7554 129.682 83.9259 128.768 82.8463 128.097C81.7782 127.427 80.5168 127.091 79.0623 127.091C77.46 127.091 76.0736 127.489 74.9032 128.285C73.7441 129.069 72.852 130.091 72.227 131.353C71.602 132.614 71.2895 133.966 71.2895 135.41V137.728C71.2895 139.705 71.6304 141.381 72.3123 142.756C73.0054 144.12 73.9657 145.16 75.1929 145.876C76.4202 146.58 77.8463 146.932 79.4713 146.932C80.5282 146.932 81.4827 146.785 82.335 146.489C83.1986 146.182 83.9429 145.728 84.5679 145.126C85.1929 144.512 85.6759 143.751 86.0168 142.841L89.9032 143.932C89.4941 145.251 88.8066 146.41 87.8407 147.41C86.8748 148.398 85.6816 149.171 84.2611 149.728C82.8407 150.273 81.2441 150.546 79.4713 150.546ZM138.568 126.001H134.341C134.091 124.785 133.653 123.716 133.028 122.796C132.415 121.876 131.665 121.103 130.778 120.478C129.903 119.841 128.932 119.364 127.863 119.046C126.795 118.728 125.682 118.569 124.522 118.569C122.409 118.569 120.494 119.103 118.778 120.171C117.074 121.239 115.716 122.813 114.704 124.893C113.704 126.972 113.204 129.523 113.204 132.546C113.204 135.569 113.704 138.12 114.704 140.199C115.716 142.279 117.074 143.853 118.778 144.921C120.494 145.989 122.409 146.523 124.522 146.523C125.682 146.523 126.795 146.364 127.863 146.046C128.932 145.728 129.903 145.256 130.778 144.631C131.665 143.995 132.415 143.216 133.028 142.296C133.653 141.364 134.091 140.296 134.341 139.091H138.568C138.25 140.876 137.67 142.472 136.829 143.881C135.988 145.29 134.943 146.489 133.693 147.478C132.443 148.455 131.04 149.199 129.483 149.711C127.937 150.222 126.284 150.478 124.522 150.478C121.545 150.478 118.897 149.751 116.579 148.296C114.261 146.841 112.437 144.773 111.108 142.091C109.778 139.41 109.113 136.228 109.113 132.546C109.113 128.864 109.778 125.682 111.108 123.001C112.437 120.319 114.261 118.251 116.579 116.796C118.897 115.341 121.545 114.614 124.522 114.614C126.284 114.614 127.937 114.87 129.483 115.381C131.04 115.893 132.443 116.643 133.693 117.631C134.943 118.609 135.988 119.802 136.829 121.211C137.67 122.609 138.25 124.205 138.568 126.001ZM152.558 150.614C150.899 150.614 149.393 150.302 148.041 149.677C146.689 149.04 145.615 148.126 144.819 146.932C144.024 145.728 143.626 144.273 143.626 142.569C143.626 141.069 143.922 139.853 144.513 138.921C145.103 137.978 145.893 137.239 146.882 136.705C147.87 136.171 148.961 135.773 150.155 135.512C151.359 135.239 152.569 135.023 153.785 134.864C155.376 134.66 156.666 134.506 157.655 134.404C158.655 134.29 159.382 134.103 159.836 133.841C160.302 133.58 160.535 133.126 160.535 132.478V132.341C160.535 130.66 160.075 129.353 159.155 128.421C158.245 127.489 156.865 127.023 155.013 127.023C153.092 127.023 151.586 127.444 150.495 128.285C149.405 129.126 148.638 130.023 148.194 130.978L144.376 129.614C145.058 128.023 145.967 126.785 147.103 125.898C148.251 125.001 149.501 124.376 150.853 124.023C152.217 123.66 153.558 123.478 154.876 123.478C155.717 123.478 156.683 123.58 157.774 123.785C158.876 123.978 159.939 124.381 160.961 124.995C161.995 125.609 162.853 126.535 163.535 127.773C164.217 129.012 164.558 130.671 164.558 132.751V150.001H160.535V146.455H160.331C160.058 147.023 159.603 147.631 158.967 148.279C158.331 148.927 157.484 149.478 156.427 149.932C155.37 150.387 154.081 150.614 152.558 150.614ZM153.172 147.001C154.763 147.001 156.103 146.688 157.194 146.063C158.297 145.438 159.126 144.631 159.683 143.643C160.251 142.654 160.535 141.614 160.535 140.523V136.841C160.365 137.046 159.99 137.234 159.41 137.404C158.842 137.563 158.183 137.705 157.433 137.83C156.694 137.944 155.973 138.046 155.268 138.137C154.575 138.216 154.013 138.285 153.581 138.341C152.535 138.478 151.558 138.699 150.649 139.006C149.751 139.302 149.024 139.751 148.467 140.353C147.922 140.944 147.649 141.751 147.649 142.773C147.649 144.171 148.166 145.228 149.2 145.944C150.245 146.648 151.569 147.001 153.172 147.001ZM190.446 129.682L186.832 130.705C186.605 130.103 186.27 129.518 185.826 128.949C185.395 128.37 184.804 127.893 184.054 127.518C183.304 127.143 182.344 126.955 181.173 126.955C179.571 126.955 178.236 127.324 177.167 128.063C176.111 128.79 175.582 129.716 175.582 130.841C175.582 131.841 175.946 132.631 176.673 133.211C177.4 133.79 178.537 134.273 180.082 134.66L183.969 135.614C186.309 136.182 188.054 137.052 189.201 138.222C190.349 139.381 190.923 140.876 190.923 142.705C190.923 144.205 190.491 145.546 189.628 146.728C188.775 147.91 187.582 148.841 186.048 149.523C184.514 150.205 182.73 150.546 180.696 150.546C178.025 150.546 175.815 149.966 174.065 148.807C172.315 147.648 171.207 145.955 170.741 143.728L174.559 142.773C174.923 144.182 175.611 145.239 176.622 145.944C177.645 146.648 178.98 147.001 180.628 147.001C182.503 147.001 183.991 146.603 185.094 145.807C186.207 145.001 186.764 144.035 186.764 142.91C186.764 142.001 186.446 141.239 185.809 140.626C185.173 140.001 184.196 139.535 182.878 139.228L178.514 138.205C176.116 137.637 174.355 136.756 173.23 135.563C172.116 134.359 171.559 132.853 171.559 131.046C171.559 129.569 171.974 128.262 172.804 127.126C173.645 125.989 174.787 125.097 176.23 124.449C177.684 123.802 179.332 123.478 181.173 123.478C183.764 123.478 185.798 124.046 187.275 125.182C188.764 126.319 189.821 127.819 190.446 129.682ZM204.683 150.614C203.024 150.614 201.518 150.302 200.166 149.677C198.814 149.04 197.74 148.126 196.944 146.932C196.149 145.728 195.751 144.273 195.751 142.569C195.751 141.069 196.047 139.853 196.638 138.921C197.228 137.978 198.018 137.239 199.007 136.705C199.995 136.171 201.086 135.773 202.28 135.512C203.484 135.239 204.694 135.023 205.91 134.864C207.501 134.66 208.791 134.506 209.78 134.404C210.78 134.29 211.507 134.103 211.961 133.841C212.427 133.58 212.66 133.126 212.66 132.478V132.341C212.66 130.66 212.2 129.353 211.28 128.421C210.37 127.489 208.99 127.023 207.138 127.023C205.217 127.023 203.711 127.444 202.62 128.285C201.53 129.126 200.763 130.023 200.319 130.978L196.501 129.614C197.183 128.023 198.092 126.785 199.228 125.898C200.376 125.001 201.626 124.376 202.978 124.023C204.342 123.66 205.683 123.478 207.001 123.478C207.842 123.478 208.808 123.58 209.899 123.785C211.001 123.978 212.064 124.381 213.086 124.995C214.12 125.609 214.978 126.535 215.66 127.773C216.342 129.012 216.683 130.671 216.683 132.751V150.001H212.66V146.455H212.456C212.183 147.023 211.728 147.631 211.092 148.279C210.456 148.927 209.609 149.478 208.552 149.932C207.495 150.387 206.206 150.614 204.683 150.614ZM205.297 147.001C206.888 147.001 208.228 146.688 209.319 146.063C210.422 145.438 211.251 144.631 211.808 143.643C212.376 142.654 212.66 141.614 212.66 140.523V136.841C212.49 137.046 212.115 137.234 211.535 137.404C210.967 137.563 210.308 137.705 209.558 137.83C208.819 137.944 208.098 138.046 207.393 138.137C206.7 138.216 206.138 138.285 205.706 138.341C204.66 138.478 203.683 138.699 202.774 139.006C201.876 139.302 201.149 139.751 200.592 140.353C200.047 140.944 199.774 141.751 199.774 142.773C199.774 144.171 200.291 145.228 201.325 145.944C202.37 146.648 203.694 147.001 205.297 147.001Z" fill="white"/>
</svg>
