<svg width="243" height="494" viewBox="0 0 243 494" fill="none" xmlns="http://www.w3.org/2000/svg">
<path d="M95.7827 366.31C70.7592 366.647 50.197 345.977 49.8557 320.143C49.5144 294.309 69.5232 273.093 94.5467 272.756C119.57 272.419 143.489 293.044 143.83 318.878C144.171 344.712 120.806 365.973 95.7827 366.31Z" fill="white"/>
<path d="M91.3713 226.364C54.4838 228.87 22.4336 253.038 9.84758 287.789C1.56594 310.717 2.82029 337.171 13.2216 358.592C17.0533 366.501 87.573 487.382 89.4059 489.132C92.104 491.73 97.1432 491.737 99.6401 489.15C100.543 488.237 131.87 439.492 174.172 373.112C183.041 359.161 187.093 349.457 189.889 335.269C190.933 330.162 191.287 313.536 190.474 307.819C187.691 287.29 179.132 269.588 165.054 254.926C151.281 240.582 134.128 231.241 114.723 227.602C109.031 226.544 97.6667 225.932 91.3713 226.364ZM106.158 273.582C116.764 275.68 124.619 280.05 131.931 287.983C142.952 299.832 146.875 315.67 142.64 331.536C135.35 359.098 104.078 373.593 78.0983 361.571C65.3914 355.696 56.4254 344.929 52.4135 330.85C51.2545 326.731 51.1252 325.485 51.2798 318.234C51.4344 310.983 51.6167 309.744 52.9502 305.679C55.616 297.603 59.5956 291.265 65.4811 285.694C76.5659 275.057 91.31 270.665 106.158 273.582Z" fill="white"/>
<path d="M92.0688 233.436C57.9059 235.749 28.1949 258.332 16.4951 290.834C8.79645 312.277 9.92411 337.028 19.5288 357.077C23.067 364.48 88.2165 477.632 89.9117 479.271C92.4069 481.705 97.0735 481.716 99.3891 479.297C100.226 478.443 129.299 432.867 168.558 370.8C176.789 357.756 180.553 348.68 183.161 335.409C184.134 330.632 184.484 315.078 183.738 309.728C181.187 290.52 173.284 273.951 160.266 260.222C147.53 246.79 131.657 238.036 113.692 234.615C108.422 233.62 97.8992 233.038 92.0688 233.436ZM105.702 277.625C115.52 279.597 122.789 283.692 129.55 291.12C139.741 302.215 143.353 317.036 139.411 331.876C132.625 357.656 103.647 371.19 79.6039 359.921C67.8442 354.413 59.5551 344.332 55.858 331.157C54.7899 327.302 54.6718 326.136 54.8243 319.353C54.9767 312.569 55.1471 311.41 56.3872 307.608C58.8663 300.054 62.5597 294.128 68.0171 288.922C78.2958 278.979 91.9552 274.883 105.702 277.625Z" fill="#FB0A0A"/>
<rect width="221.242" height="167.557" rx="20" transform="matrix(-0.00457354 -0.99999 0.999987 -0.00507215 15.6235 224.193)" fill="#C4C4C4"/>
<rect width="221.242" height="167.557" rx="20" transform="matrix(-0.00457354 -0.99999 0.999987 -0.00507215 15.6235 224.193)" fill="#C4C4C4"/>
<rect width="221.242" height="167.557" rx="20" transform="matrix(-0.00457354 -0.99999 0.999987 -0.00507215 15.6235 224.193)" fill="white"/>
<rect width="201.82" height="147.408" rx="20" transform="matrix(-0.00457354 -0.99999 0.999987 -0.00507215 26.1857 214.848)" fill="white"/>
<rect width="201.82" height="147.408" rx="20" transform="matrix(-0.00457354 -0.99999 0.999987 -0.00507215 26.1857 214.848)" fill="black"/>
<rect width="201.82" height="147.408" rx="20" transform="matrix(-0.00457354 -0.99999 0.999987 -0.00507215 26.1857 214.848)" fill="#FF0000"/>
<path d="M40.89 93.325L41.3918 58.4196L53.186 58.5965C55.9129 58.6374 58.1446 59.1368 59.881 60.0948C61.6176 61.0414 62.8947 62.3277 63.7123 63.9538C64.5299 65.5799 64.9239 67.4213 64.8944 69.4779C64.8648 71.5345 64.4182 73.3518 63.5545 74.93C62.6908 76.5081 61.3832 77.7386 59.6317 78.6215C57.8804 79.4931 55.6526 79.9086 52.9483 79.868L43.4039 79.7249L43.4588 75.9071L52.8669 76.0482C54.7303 76.0762 56.234 75.826 57.3781 75.2976C58.5336 74.7694 59.3741 74.0092 59.8998 73.017C60.437 72.0136 60.7157 70.8131 60.7357 69.4155C60.7558 68.0179 60.5121 66.7925 60.0044 65.7393C59.4968 64.6861 58.6733 63.8669 57.5338 63.2815C56.3946 62.6848 54.8818 62.3723 52.9957 62.344L45.5647 62.2326L45.1168 93.3884L40.89 93.325ZM57.5454 77.8913L65.9099 93.7004L61.0014 93.6267L52.7732 77.8197L57.5454 77.8913ZM81.7312 94.4832C79.2088 94.4454 77.0409 93.856 75.2276 92.715C73.4258 91.5629 72.0451 89.9738 71.0855 87.9478C70.1374 85.9106 69.6826 83.5513 69.7212 80.8697C69.7597 78.1882 70.2823 75.8321 71.2888 73.8015C72.3069 71.7598 73.7048 70.1783 75.4825 69.0571C77.2717 67.9247 79.3479 67.3762 81.7113 67.4117C83.0748 67.4321 84.418 67.6796 85.7408 68.154C87.0637 68.6285 88.2632 69.3852 89.3393 70.4242C90.4155 71.4518 91.2654 72.8056 91.8891 74.4856C92.5127 76.1656 92.807 78.2271 92.7719 80.67L92.7474 82.3744L72.5678 82.0716L72.6178 78.5947L88.7069 78.8361C88.7281 77.359 88.4517 76.0365 87.8775 74.8687C87.3147 73.701 86.4984 72.7739 85.4286 72.0873C84.3702 71.4009 83.1138 71.0468 81.6594 71.025C80.0573 71.0009 78.6654 71.3778 77.4836 72.1556C76.3134 72.9223 75.4067 73.9315 74.7637 75.1834C74.1206 76.4352 73.7887 77.7827 73.7679 79.2257L73.7346 81.5436C73.7062 83.5207 74.023 85.2018 74.6849 86.5869C75.3584 87.9608 76.3036 89.0148 77.5205 89.7491C78.7375 90.4719 80.1584 90.8456 81.7832 90.8699C82.8399 90.8858 83.7965 90.7524 84.6529 90.4698C85.5208 90.1759 86.2716 89.7326 86.9052 89.1398C87.5389 88.5356 88.0328 87.7815 88.3867 86.8776L92.257 88.0267C91.829 89.3386 91.1249 90.4873 90.1447 91.4727C89.1647 92.4468 87.9605 93.2015 86.5322 93.737C85.1041 94.2611 83.5038 94.5098 81.7312 94.4832ZM102.946 78.5042L102.72 94.2525L98.6974 94.1922L99.0738 68.0131L102.96 68.0714L102.901 72.1619L103.242 72.167C103.874 70.8468 104.822 69.7927 106.083 69.0047C107.345 68.2053 108.964 67.8205 110.941 67.8502C112.714 67.8768 114.259 68.2636 115.578 69.0108C116.897 69.7465 117.916 70.8528 118.633 72.3297C119.351 73.7951 119.694 75.6414 119.662 77.8685L119.422 94.5031L115.4 94.4428L115.635 78.0808C115.665 76.0242 115.154 74.4141 114.102 73.2505C113.051 72.0755 111.594 71.474 109.73 71.446C108.446 71.4268 107.295 71.6879 106.275 72.2295C105.267 72.7713 104.466 73.5719 103.871 74.6312C103.276 75.6906 102.968 76.9816 102.946 78.5042ZM138.534 68.605L138.485 72.0138L124.918 71.8103L124.967 68.4015L138.534 68.605ZM129.011 62.1887L133.034 62.2491L132.675 87.2011C132.659 88.3373 132.811 89.192 133.133 89.765C133.465 90.3269 133.892 90.7083 134.412 90.9093C134.943 91.0991 135.504 91.1985 136.095 91.2073C136.538 91.214 136.902 91.1967 137.187 91.1555C137.472 91.103 137.7 91.0609 137.87 91.0294L138.637 94.6549C138.362 94.7531 137.98 94.8497 137.49 94.9446C137 95.0509 136.38 95.0984 135.63 95.0872C134.494 95.0701 133.384 94.8091 132.3 94.3042C131.228 93.7994 130.341 93.0417 129.639 92.0311C128.949 91.0206 128.615 89.7541 128.637 88.2315L129.011 62.1887ZM151.903 95.604C150.244 95.5792 148.743 95.2441 147.4 94.5989C146.057 93.9423 144.996 93.0115 144.218 91.8065C143.44 90.5902 143.063 89.1298 143.088 87.4254C143.109 85.9256 143.422 84.7142 144.026 83.7914C144.631 82.8572 145.431 82.1305 146.427 81.6112C147.423 81.092 148.52 80.7107 149.717 80.4673C150.925 80.2126 152.138 80.0149 153.356 79.8741C154.95 79.6934 156.242 79.5594 157.232 79.4719C158.233 79.3733 158.963 79.1967 159.421 78.9422C159.891 78.6879 160.131 78.2369 160.14 77.5892L160.142 77.4528C160.166 75.7712 159.725 74.4576 158.818 73.5121C157.922 72.5667 156.548 72.0802 154.696 72.0524C152.776 72.0236 151.264 72.4214 150.162 73.2459C149.059 74.0703 148.279 74.9565 147.822 75.9042L144.024 74.4835C144.728 72.903 145.655 71.6781 146.804 70.8089C147.965 69.9284 149.223 69.3223 150.581 68.9903C151.949 68.6472 153.293 68.4855 154.611 68.5052C155.452 68.5179 156.416 68.6346 157.504 68.8555C158.603 69.0652 159.66 69.4845 160.674 70.1134C161.699 70.7425 162.543 71.6814 163.207 72.9301C163.871 74.1789 164.188 75.8429 164.158 77.9222L163.91 95.1705L159.888 95.1101L159.939 91.565L159.734 91.562C159.454 92.126 158.99 92.7271 158.345 93.3652C157.699 94.0033 156.845 94.5417 155.781 94.9803C154.718 95.419 153.425 95.6269 151.903 95.604ZM152.568 92C154.159 92.0238 155.504 91.7315 156.604 91.1229C157.715 90.5145 158.556 89.7202 159.127 88.74C159.71 87.76 160.009 86.7246 160.024 85.6338L160.077 81.9524C159.904 82.1544 159.526 82.3362 158.944 82.498C158.374 82.6485 157.713 82.7806 156.961 82.8944C156.221 82.9969 155.498 83.0884 154.792 83.1687C154.098 83.2378 153.534 83.2976 153.102 83.3479C152.055 83.4686 151.074 83.6755 150.161 83.9686C149.259 84.2506 148.525 84.6885 147.96 85.2824C147.406 85.865 147.122 86.6677 147.107 87.6903C147.087 89.0879 147.589 90.1524 148.612 90.8837C149.648 91.6039 150.966 91.9759 152.568 92ZM53.5547 151.522L54.0565 116.616L66.2597 116.799C68.6912 116.836 70.6907 117.286 72.2579 118.151C73.8254 119.004 74.9853 120.141 75.7377 121.561C76.4902 122.97 76.8542 124.527 76.8297 126.231C76.8082 127.731 76.5234 128.966 75.9753 129.935C75.4386 130.904 74.7343 131.667 73.8626 132.222C73.0023 132.777 72.0702 133.184 71.0664 133.441L71.0615 133.782C72.1286 133.866 73.1969 134.257 74.2666 134.955C75.3362 135.653 76.2254 136.644 76.9343 137.928C77.6432 139.211 77.9845 140.773 77.958 142.614C77.9328 144.364 77.5125 145.931 76.6971 147.317C75.8816 148.703 74.6101 149.792 72.8827 150.584C71.1552 151.376 68.9166 151.752 66.1669 151.711L53.5547 151.522ZM57.8354 147.835L66.2208 147.961C68.9819 148.003 70.9496 147.498 72.1239 146.447C73.3097 145.385 73.9137 144.087 73.9357 142.554C73.9527 141.372 73.6673 140.276 73.0795 139.268C72.4918 138.247 71.6455 137.428 70.5407 136.809C69.436 136.178 68.1224 135.852 66.5998 135.829L58.0099 135.7L57.8354 147.835ZM58.0628 132.019L65.9028 132.136C67.1754 132.155 68.3266 131.923 69.3564 131.438C70.3976 130.954 71.2258 130.261 71.841 129.362C72.4677 128.462 72.7898 127.398 72.8075 126.171C72.8295 124.637 72.3142 123.328 71.2615 122.244C70.2089 121.149 68.5237 120.583 66.2058 120.549L58.2294 120.429L58.0628 132.019ZM100.877 141.526L101.099 126.05L105.121 126.11L104.745 152.289L100.723 152.229L100.786 147.798L100.514 147.794C99.881 149.114 98.9103 150.23 97.6016 151.142C96.2931 152.043 94.6503 152.479 92.6732 152.449C91.0371 152.425 89.5878 152.045 88.3255 151.31C87.0634 150.564 86.0792 149.458 85.3729 147.993C84.6668 146.516 84.3297 144.664 84.3618 142.437L84.6009 125.803L88.6232 125.863L88.388 142.225C88.3605 144.134 88.8727 145.664 89.9244 146.817C90.9875 147.969 92.3541 148.558 94.0244 148.583C95.0243 148.598 96.0449 148.357 97.0862 147.862C98.1389 147.366 99.0251 146.595 99.7447 145.549C100.476 144.503 100.853 143.162 100.877 141.526ZM130.947 132.362L127.32 133.33C127.101 132.725 126.774 132.135 126.339 131.56C125.916 130.974 125.332 130.488 124.587 130.102C123.843 129.715 122.885 129.514 121.715 129.496C120.113 129.472 118.773 129.821 117.694 130.544C116.627 131.255 116.085 132.173 116.069 133.298C116.054 134.298 116.407 135.093 117.126 135.683C117.844 136.274 118.974 136.774 120.513 137.183L124.386 138.196C126.718 138.799 128.45 139.695 129.581 140.882C130.711 142.058 131.264 143.561 131.237 145.391C131.216 146.89 130.765 148.225 129.884 149.393C129.015 150.562 127.809 151.476 126.265 152.135C124.721 152.794 122.933 153.108 120.899 153.077C118.228 153.037 116.027 152.425 114.294 151.239C112.561 150.054 111.477 148.345 111.043 146.11L114.875 145.213C115.218 146.628 115.89 147.695 116.891 148.414C117.904 149.134 119.234 149.506 120.881 149.531C122.756 149.559 124.25 149.184 125.364 148.405C126.489 147.615 127.06 146.658 127.076 145.533C127.089 144.624 126.782 143.858 126.154 143.235C125.527 142.6 124.557 142.12 123.243 141.793L118.894 140.705C116.505 140.101 114.757 139.194 113.649 137.984C112.553 136.763 112.018 135.249 112.044 133.442C112.065 131.965 112.498 130.665 113.344 129.541C114.201 128.417 115.356 127.542 116.808 126.916C118.272 126.291 119.924 125.991 121.765 126.019C124.356 126.058 126.381 126.657 127.842 127.815C129.314 128.974 130.349 130.489 130.947 132.362Z" fill="white"/>
</svg>
