<svg width="542" height="198" viewBox="0 0 542 198" fill="none" xmlns="http://www.w3.org/2000/svg">
<path d="M128.699 96.7171C128.623 71.6915 149.506 51.3457 175.342 51.2735C201.178 51.2013 222.185 71.43 222.261 96.4557C222.337 121.481 201.465 145.184 175.629 145.256C149.792 145.328 128.776 121.743 128.699 96.7171Z" fill="white"/>
<path d="M268.684 93.7643C266.563 56.8527 242.73 24.5525 208.111 11.6052C185.271 3.0852 158.805 4.06394 137.277 14.2416C129.329 17.9907 7.7196 87.2474 5.95041 89.0621C3.3242 91.7329 3.26468 96.7718 5.82632 99.2955C6.72973 100.208 55.1454 132.041 121.081 175.032C134.939 184.046 144.601 188.198 158.759 191.142C163.855 192.239 180.475 192.767 186.201 192.013C206.758 189.444 224.548 181.07 239.356 167.145C253.843 153.522 263.362 136.468 267.203 117.102C268.32 111.421 269.05 100.064 268.684 93.7643ZM221.314 108.058C219.106 118.642 214.655 126.451 206.646 133.68C194.683 144.577 178.805 148.334 162.983 143.935C135.499 136.358 121.33 104.937 133.622 79.0837C139.629 66.4387 150.489 57.5853 164.609 53.7203C168.74 52.6042 169.987 52.4879 177.236 52.718C184.485 52.9481 185.723 53.1433 189.773 54.5191C197.821 57.269 204.117 61.3143 209.626 67.2575C220.148 78.4525 224.386 93.2416 221.314 108.058Z" fill="white"/>
<path d="M261.605 94.3882C259.648 60.2031 237.375 30.2584 204.998 18.2207C183.635 10.2992 158.875 11.169 138.726 20.5643C131.287 24.0252 17.4619 87.9926 15.8053 89.6706C13.3463 92.1404 13.2868 96.8065 15.6814 99.1472C16.5259 99.9931 61.7974 129.539 123.452 169.442C136.41 177.809 145.446 181.668 158.689 184.413C163.456 185.436 179.005 185.948 184.362 185.258C203.596 182.907 220.246 175.177 234.11 162.303C247.674 149.707 256.593 133.927 260.201 115.998C261.25 110.739 261.942 100.222 261.605 94.3882ZM217.276 107.56C215.202 117.357 211.032 124.583 203.534 131.267C192.333 141.341 177.475 144.799 162.677 140.703C136.97 133.649 123.738 104.531 135.257 80.6066C140.887 68.9049 151.054 60.7212 164.267 57.1615C168.132 56.1336 169.299 56.0277 176.081 56.2508C182.863 56.4739 184.02 56.6563 187.808 57.936C195.336 60.4936 201.223 64.2486 206.373 69.7599C216.208 80.1416 220.161 93.8429 217.276 107.56Z" fill="#FB0A0A"/>
<rect width="270.22" height="173.873" rx="20" transform="matrix(0.999983 0.0058594 -0.00523566 0.999986 269.701 8.45026)" fill="#C4C4C4"/>
<rect width="270.22" height="173.873" rx="20" transform="matrix(0.999983 0.0058594 -0.00523566 0.999986 269.701 8.45026)" fill="#C4C4C4"/>
<rect width="270.22" height="173.873" rx="20" transform="matrix(0.999983 0.0058594 -0.00523566 0.999986 269.701 8.45026)" fill="white"/>
<rect width="246.499" height="152.965" rx="20" transform="matrix(0.999983 0.0058594 -0.00523566 0.999986 280.991 19.5213)" fill="white"/>
<rect width="246.499" height="152.965" rx="20" transform="matrix(0.999983 0.0058594 -0.00523566 0.999986 280.991 19.5213)" fill="black"/>
<rect width="246.499" height="152.965" rx="20" transform="matrix(0.999983 0.0058594 -0.00523566 0.999986 280.991 19.5213)" fill="#FF0000"/>
<path d="M339.402 82.0212L339.559 47.1125L351.354 47.173C354.082 47.187 356.318 47.6643 358.064 48.6051C359.81 49.5345 361.099 50.8082 361.933 52.4262C362.767 54.0441 363.179 55.8814 363.17 57.9382C363.16 59.995 362.732 61.8167 361.884 63.4033C361.035 64.9899 359.74 66.2333 357.997 67.1334C356.255 68.0222 354.031 68.4597 351.327 68.4458L341.781 68.3969L341.798 64.5787L351.207 64.627C353.071 64.6365 354.572 64.3715 355.711 63.8319C356.861 63.2923 357.694 62.5239 358.21 61.5265C358.737 60.5178 359.004 59.3146 359.01 57.9169C359.017 56.5192 358.761 55.2963 358.243 54.2482C357.725 53.2 356.893 52.3889 355.748 51.8149C354.603 51.2295 353.087 50.9319 351.201 50.9222L343.769 50.8841L343.629 82.0429L339.402 82.0212ZM355.904 66.4238L364.424 82.1495L359.515 82.1244L351.131 66.3993L355.904 66.4238ZM380.252 82.7762C377.73 82.7632 375.556 82.1953 373.732 81.0723C371.919 79.9379 370.522 78.3626 369.543 76.3462C368.574 74.3185 368.096 71.9637 368.109 69.2819C368.121 66.6001 368.62 64.239 369.606 62.1986C370.604 60.1469 371.986 58.5517 373.753 57.413C375.531 56.263 377.602 55.694 379.965 55.7062C381.329 55.7132 382.674 55.9473 384.002 56.4087C385.329 56.8701 386.536 57.6149 387.623 58.6432C388.709 59.6602 389.572 61.0055 390.212 62.6793C390.853 64.353 391.167 66.4115 391.156 68.8546L391.148 70.5592L370.967 70.4557L370.983 66.9784L387.073 67.061C387.08 65.5837 386.79 64.264 386.205 63.1019C385.63 61.9398 384.805 61.0208 383.728 60.3448C382.663 59.6689 381.404 59.3272 379.949 59.3198C378.347 59.3116 376.959 59.7022 375.785 60.4916C374.622 61.2697 373.725 62.2879 373.095 63.546C372.464 64.8042 372.145 66.1548 372.139 67.598L372.128 69.9162C372.12 71.8934 372.453 73.5713 373.129 74.9498C373.816 76.3169 374.771 77.3616 375.995 78.0838C377.219 78.7947 378.644 79.1542 380.269 79.1626C381.326 79.168 382.281 79.0252 383.134 78.7341C383.999 78.4317 384.746 77.981 385.373 77.3819C386.001 76.7715 386.487 76.0126 386.832 75.1053L390.714 76.2161C390.299 77.5322 389.606 78.6877 388.636 79.6828C387.665 80.6664 386.469 81.433 385.046 81.9826C383.623 82.5207 382.025 82.7853 380.252 82.7762ZM401.309 66.5885L401.238 82.3383L397.215 82.3177L397.333 56.1362L401.219 56.1561L401.201 60.2469L401.542 60.2487C402.161 58.9223 403.098 57.8589 404.351 57.0585C405.605 56.2468 407.221 55.8459 409.198 55.8561C410.971 55.8652 412.52 56.2368 413.846 56.9708C415.173 57.6936 416.202 58.7898 416.934 60.2595C417.666 61.7178 418.027 63.5606 418.017 65.7878L417.942 82.424L413.919 82.4034L413.993 66.0399C414.002 63.9831 413.475 62.3781 412.412 61.2249C411.349 60.0604 409.886 59.4733 408.022 59.4637C406.738 59.4572 405.589 59.7297 404.576 60.2813C403.573 60.833 402.78 61.6414 402.195 62.7066C401.611 63.7718 401.315 65.0658 401.309 66.5885ZM436.797 56.3385L436.781 59.7476L423.213 59.678L423.229 56.269L436.797 56.3385ZM427.212 50.0166L431.234 50.0372L431.122 74.9915C431.117 76.1278 431.278 76.981 431.605 77.5508C431.943 78.1094 432.373 78.4866 432.895 78.6825C433.428 78.867 433.99 78.9608 434.581 78.9638C435.024 78.9661 435.388 78.9452 435.672 78.9012C435.957 78.8459 436.184 78.8016 436.355 78.7684L437.157 82.3862C436.884 82.4871 436.502 82.5874 436.013 82.6871C435.524 82.7983 434.905 82.8519 434.155 82.8481C433.018 82.8422 431.906 82.5922 430.817 82.098C429.74 81.6038 428.845 80.8549 428.134 79.8512C427.434 78.8476 427.087 77.5845 427.094 76.0618L427.212 50.0166ZM450.432 83.2043C448.773 83.1958 447.268 82.8755 445.919 82.2436C444.569 81.6003 443.5 80.68 442.71 79.4828C441.92 78.2742 441.528 76.8176 441.536 75.1131C441.543 73.6131 441.844 72.3987 442.439 71.4699C443.034 70.5298 443.827 69.7952 444.818 69.2662C445.809 68.7372 446.902 68.3451 448.096 68.0898C449.302 67.8233 450.513 67.6136 451.73 67.4607C453.322 67.2643 454.612 67.1175 455.601 67.0203C456.602 66.9118 457.33 66.7281 457.785 66.469C458.253 66.2101 458.488 65.7567 458.49 65.109L458.491 64.9726C458.499 63.2908 458.044 61.9817 457.128 61.0451C456.223 60.1087 454.845 59.6357 452.992 59.6262C451.072 59.6163 449.564 60.0291 448.47 60.8644C447.375 61.6997 446.604 62.5935 446.156 63.5457L442.344 62.1625C443.033 60.5751 443.948 59.3412 445.088 58.4606C446.24 57.5688 447.493 56.9502 448.847 56.6049C450.212 56.2482 451.554 56.0733 452.872 56.0801C453.713 56.0844 454.678 56.1916 455.768 56.4017C456.87 56.6006 457.93 57.0094 458.95 57.6283C459.982 58.2472 460.835 59.1778 461.512 60.4199C462.188 61.662 462.521 63.3228 462.512 65.4024L462.434 82.6522L458.412 82.6315L458.427 79.0861L458.223 79.0851C457.948 79.6519 457.49 80.2575 456.851 80.9019C456.212 81.5464 455.363 82.0932 454.304 82.5423C453.245 82.9914 451.954 83.2121 450.432 83.2043ZM451.061 79.5938C452.652 79.602 453.995 79.2964 455.088 78.677C456.193 78.0576 457.027 77.2551 457.588 76.2693C458.161 75.2836 458.449 74.2453 458.454 73.1544L458.471 69.4726C458.299 69.6763 457.924 69.8618 457.343 70.0293C456.774 70.1855 456.115 70.3242 455.364 70.4453C454.625 70.5552 453.903 70.6537 453.198 70.741C452.504 70.817 451.942 70.8823 451.51 70.9369C450.464 71.0679 449.485 71.2845 448.575 71.5866C447.676 71.8775 446.946 72.3226 446.387 72.922C445.839 73.5101 445.562 74.3155 445.558 75.3383C445.552 76.736 446.064 77.7954 447.095 78.5166C448.137 79.2265 449.459 79.5856 451.061 79.5938ZM339.14 140.021L339.298 105.112L360.366 105.22L360.349 108.97L343.508 108.884L343.455 120.679L359.205 120.76L359.188 124.51L343.438 124.429L343.385 136.292L360.498 136.38L360.481 140.13L339.14 140.021ZM377.166 140.761C374.984 140.75 373.06 140.189 371.395 139.078C369.73 137.956 368.43 136.381 367.496 134.353C366.562 132.315 366.101 129.909 366.114 127.136C366.126 124.386 366.608 122.002 367.561 119.984C368.513 117.966 369.832 116.411 371.519 115.317C373.206 114.223 375.152 113.682 377.356 113.694C379.061 113.702 380.406 113.993 381.392 114.567C382.389 115.128 383.148 115.769 383.667 116.487C384.198 117.195 384.61 117.776 384.904 118.232L385.245 118.234L385.303 105.348L389.325 105.368L389.168 140.277L385.282 140.257L385.3 136.235L384.823 136.232C384.525 136.708 384.102 137.308 383.553 138.032C383.005 138.746 382.223 139.384 381.209 139.947C380.196 140.498 378.848 140.77 377.166 140.761ZM377.728 137.15C379.341 137.159 380.707 136.745 381.824 135.91C382.942 135.063 383.794 133.892 384.38 132.395C384.966 130.886 385.264 129.143 385.273 127.166C385.281 125.212 385.005 123.5 384.444 122.031C383.882 120.551 383.046 119.399 381.936 118.575C380.826 117.74 379.453 117.318 377.817 117.31C376.112 117.301 374.69 117.731 373.55 118.6C372.421 119.458 371.569 120.63 370.994 122.116C370.431 123.59 370.145 125.248 370.137 127.089C370.128 128.952 370.405 130.647 370.966 132.172C371.539 133.687 372.385 134.896 373.506 135.799C374.639 136.691 376.046 137.142 377.728 137.15ZM397.094 140.318L397.212 114.136L401.235 114.157L401.117 140.338L397.094 140.318ZM399.277 109.783C398.493 109.779 397.818 109.509 397.252 108.972C396.698 108.435 396.423 107.791 396.426 107.041C396.429 106.291 396.711 105.651 397.27 105.119C397.84 104.588 398.518 104.325 399.302 104.329C400.086 104.333 400.755 104.603 401.31 105.14C401.875 105.677 402.157 106.321 402.153 107.071C402.15 107.821 401.863 108.461 401.292 108.992C400.733 109.524 400.061 109.787 399.277 109.783ZM420.262 114.254L420.246 117.664L406.133 117.591L406.148 114.182L420.262 114.254ZM410.257 140.385L410.392 110.59C410.398 109.09 410.756 107.842 411.465 106.846C412.174 105.849 413.093 105.104 414.22 104.61C415.347 104.116 416.536 103.872 417.786 103.878C418.774 103.883 419.581 103.967 420.205 104.129C420.829 104.291 421.294 104.441 421.601 104.579L420.426 108.051C420.222 107.981 419.938 107.895 419.575 107.791C419.223 107.687 418.757 107.633 418.178 107.63C416.848 107.623 415.887 107.954 415.293 108.621C414.71 109.288 414.416 110.27 414.41 111.565L414.28 140.406L410.257 140.385ZM425.781 140.465L425.899 114.283L429.922 114.304L429.804 140.486L425.781 140.465ZM427.964 109.93C427.18 109.926 426.505 109.656 425.94 109.119C425.385 108.582 425.11 107.938 425.113 107.188C425.116 106.438 425.398 105.798 425.957 105.267C426.528 104.735 427.205 104.472 427.989 104.476C428.773 104.48 429.442 104.75 429.997 105.287C430.562 105.824 430.844 106.468 430.84 107.218C430.837 107.968 430.55 108.608 429.979 109.139C429.42 109.671 428.748 109.934 427.964 109.93ZM447.806 141.123C445.351 141.111 443.24 140.52 441.473 139.352C439.705 138.184 438.349 136.58 437.403 134.542C436.458 132.503 435.991 130.176 436.003 127.563C436.015 124.904 436.514 122.56 437.501 120.53C438.498 118.49 439.881 116.901 441.647 115.762C443.425 114.612 445.496 114.043 447.859 114.055C449.7 114.065 451.358 114.414 452.832 115.103C454.306 115.793 455.512 116.753 456.45 117.986C457.387 119.218 457.966 120.652 458.186 122.29L454.163 122.269C453.862 121.075 453.185 120.014 452.132 119.088C451.091 118.151 449.684 117.678 447.911 117.669C446.343 117.661 444.966 118.063 443.781 118.875C442.607 119.676 441.687 120.813 441.021 122.287C440.367 123.75 440.035 125.47 440.026 127.447C440.017 129.47 440.327 131.233 440.957 132.736C441.598 134.239 442.502 135.409 443.668 136.244C444.847 137.08 446.231 137.502 447.822 137.51C448.867 137.515 449.817 137.338 450.671 136.979C451.525 136.62 452.249 136.101 452.843 135.422C453.437 134.743 453.861 133.927 454.115 132.974L458.138 132.994C457.904 134.539 457.335 135.928 456.431 137.162C455.54 138.385 454.359 139.356 452.89 140.076C451.432 140.784 449.737 141.133 447.806 141.123ZM463.984 140.661L464.102 114.479L468.125 114.5L468.007 140.682L463.984 140.661ZM466.167 110.126C465.383 110.122 464.708 109.852 464.142 109.315C463.588 108.778 463.312 108.134 463.316 107.384C463.319 106.634 463.6 105.994 464.16 105.462C464.73 104.931 465.407 104.668 466.192 104.672C466.976 104.676 467.645 104.946 468.199 105.483C468.765 106.02 469.046 106.664 469.043 107.414C469.04 108.164 468.753 108.804 468.182 109.335C467.623 109.867 466.951 110.13 466.167 110.126ZM486.008 141.319C483.645 141.307 481.573 140.734 479.794 139.6C478.027 138.466 476.647 136.885 475.657 134.857C474.677 132.829 474.193 130.463 474.206 127.759C474.218 125.031 474.723 122.653 475.721 120.624C476.73 118.595 478.123 117.023 479.901 115.907C481.69 114.791 483.767 114.239 486.13 114.251C488.494 114.264 490.559 114.837 492.327 115.971C494.106 117.105 495.485 118.691 496.465 120.731C497.456 122.77 497.945 125.153 497.933 127.88C497.92 130.585 497.41 132.946 496.401 134.963C495.403 136.981 494.009 138.548 492.22 139.664C490.443 140.78 488.372 141.331 486.008 141.319ZM486.025 137.706C487.82 137.715 489.299 137.262 490.462 136.348C491.626 135.433 492.489 134.227 493.053 132.73C493.616 131.233 493.902 129.61 493.91 127.86C493.918 126.11 493.647 124.478 493.097 122.963C492.547 121.449 491.694 120.223 490.539 119.285C489.384 118.348 487.909 117.874 486.114 117.865C484.318 117.856 482.839 118.314 481.676 119.24C480.513 120.166 479.649 121.383 479.085 122.892C478.522 124.4 478.236 126.029 478.228 127.779C478.22 129.529 478.491 131.156 479.041 132.658C479.592 134.161 480.444 135.376 481.599 136.302C482.754 137.229 484.229 137.696 486.025 137.706Z" fill="white"/>
</svg>
