<svg width="245" height="494" viewBox="0 0 245 494" fill="none" xmlns="http://www.w3.org/2000/svg">
<path d="M96.5491 365.818C71.5243 366.044 51.0545 345.283 50.8285 319.447C50.6024 293.612 70.7057 272.485 95.7304 272.26C120.755 272.035 144.581 292.766 144.807 318.601C145.033 344.437 121.574 365.593 96.5491 365.818Z" fill="white"/>
<path d="M92.7622 225.854C55.8639 228.195 23.7062 252.22 10.9653 286.915C2.58145 309.806 3.71778 336.265 14.0234 357.732C17.8198 365.658 87.7995 486.853 89.6247 488.611C92.3111 491.221 97.3502 491.251 99.8587 488.674C100.765 487.765 132.31 439.161 174.907 372.97C183.839 359.059 187.933 349.373 190.793 335.197C191.86 330.095 192.288 313.471 191.5 307.75C188.809 287.21 180.329 269.47 166.317 254.745C152.608 240.339 135.497 230.921 116.109 227.196C110.421 226.113 99.0595 225.45 92.7622 225.854ZM107.338 273.138C117.934 275.283 125.77 279.688 133.047 287.653C144.015 299.551 147.866 315.407 143.561 331.254C136.149 358.783 104.812 373.139 78.8862 361.001C66.2056 355.069 57.2878 344.262 53.3387 330.166C52.1981 326.042 52.0743 324.795 52.2613 317.544C52.4482 310.294 52.636 309.056 53.9876 304.997C56.6895 296.933 60.6973 290.613 66.6076 285.069C77.7397 274.48 92.5033 270.154 107.338 273.138Z" fill="white"/>
<path d="M93.4282 232.93C59.2553 235.09 29.4438 257.54 17.5991 289.989C9.80495 311.398 10.8222 336.153 20.3373 356.246C23.8425 363.664 88.4866 477.106 90.1745 478.753C92.6588 481.197 97.3252 481.229 99.6516 478.82C100.492 477.97 129.769 432.524 169.304 370.633C177.593 357.625 181.398 348.567 184.065 335.307C185.059 330.535 185.478 314.983 184.756 309.629C182.291 290.41 174.462 273.807 161.505 260.019C148.829 246.53 132.996 237.706 115.046 234.205C109.781 233.187 99.2603 232.557 93.4282 232.93ZM106.864 277.178C116.673 279.194 123.924 283.322 130.652 290.78C140.793 301.92 144.339 316.757 140.331 331.58C133.43 357.329 104.392 370.734 80.3992 359.357C68.6642 353.797 60.4201 343.679 56.7818 330.488C55.7309 326.628 55.618 325.462 55.8007 318.679C55.9834 311.896 56.159 310.737 57.4161 306.942C59.9288 299.399 63.6486 293.489 69.1292 288.307C79.4521 278.41 93.1297 274.375 106.864 277.178Z" fill="#FB0A0A"/>
<rect width="221.242" height="167.557" rx="20" transform="matrix(-0.000112628 -1 1 -0.000611239 17.0249 223.345)" fill="#C4C4C4"/>
<rect width="221.242" height="167.557" rx="20" transform="matrix(-0.000112628 -1 1 -0.000611239 17.0249 223.345)" fill="#C4C4C4"/>
<rect width="221.242" height="167.557" rx="20" transform="matrix(-0.000112628 -1 1 -0.000611239 17.0249 223.345)" fill="white"/>
<rect width="201.82" height="147.408" rx="20" transform="matrix(-0.000112628 -1 1 -0.000611239 27.6288 214.048)" fill="white"/>
<rect width="201.82" height="147.408" rx="20" transform="matrix(-0.000112628 -1 1 -0.000611239 27.6288 214.048)" fill="black"/>
<rect width="201.82" height="147.408" rx="20" transform="matrix(-0.000112628 -1 1 -0.000611239 27.6288 214.048)" fill="#FF0000"/>
<path d="M42.9838 88.0214L43.141 53.1127L54.9363 53.1731C57.6635 53.1871 59.9 53.6645 61.6458 54.6053C63.3917 55.5347 64.6814 56.8084 65.515 58.4263C66.3486 60.0443 66.7608 61.8816 66.7516 63.9384C66.7423 65.9952 66.3136 67.8169 65.4656 69.4035C64.6175 70.9901 63.3221 72.2334 61.5794 73.1336C59.8368 74.0224 57.6132 74.4599 54.9087 74.446L45.3633 74.3971L45.3805 70.5789L54.7895 70.6272C56.6531 70.6367 58.1543 70.3717 59.2931 69.8321C60.4433 69.2925 61.2763 68.524 61.7922 67.5267C62.3194 66.518 62.5862 65.3148 62.5925 63.9171C62.5988 62.5194 62.343 61.2965 61.825 60.2483C61.3069 59.2002 60.4754 58.3891 59.3302 57.8151C58.1851 57.2296 56.6694 56.9321 54.783 56.9224L47.3513 56.8843L47.211 88.0431L42.9838 88.0214ZM59.486 72.424L68.0061 88.1497L63.0971 88.1245L54.7133 72.3995L59.486 72.424ZM83.8345 88.7764C81.3118 88.7634 79.1382 88.1954 77.3137 87.0724C75.5006 85.9381 74.1042 84.3628 73.1247 82.3464C72.1565 80.3186 71.6785 77.9639 71.6906 75.2821C71.7027 72.6003 72.2019 70.2392 73.1884 68.1988C74.1863 66.147 75.5685 64.5518 77.335 63.4132C79.1129 62.2632 81.1837 61.6942 83.5473 61.7064C84.9109 61.7133 86.2565 61.9475 87.5839 62.4089C88.9114 62.8702 90.1183 63.6151 91.2046 64.6434C92.2909 65.6603 93.1542 67.0057 93.7944 68.6794C94.4346 70.3532 94.7492 72.4117 94.7382 74.8548L94.7305 76.5594L74.5489 76.4559L74.5646 72.9786L90.6553 73.0611C90.662 71.5839 90.3725 70.2642 89.7868 69.1021C89.2125 67.94 88.387 67.021 87.3105 66.345C86.2454 65.6691 84.9855 65.3274 83.531 65.32C81.9288 65.3117 80.5406 65.7023 79.3666 66.4918C78.204 67.2699 77.3074 68.2881 76.6767 69.5462C76.046 70.8044 75.7274 72.155 75.7209 73.5982L75.7105 75.9163C75.7016 77.8936 76.0349 79.5715 76.7105 80.95C77.3976 82.3171 78.3531 83.3618 79.5771 84.084C80.8012 84.7948 82.2258 85.1544 83.8507 85.1628C84.9075 85.1682 85.8627 85.0253 86.7163 84.7343C87.5813 84.4319 88.3277 83.9812 88.9554 83.3821C89.5831 82.7717 90.0695 82.0128 90.4145 81.1055L94.2959 82.2163C93.8809 83.5324 93.1882 84.6879 92.2178 85.6829C91.2474 86.6666 90.0508 87.4332 88.6278 87.9827C87.205 88.5209 85.6072 88.7855 83.8345 88.7764ZM104.891 72.5887L104.82 88.3385L100.797 88.3179L100.915 62.1363L104.801 62.1563L104.783 66.2471L105.124 66.2489C105.743 64.9225 106.68 63.8591 107.933 63.0587C109.187 62.2469 110.803 61.8461 112.78 61.8563C114.553 61.8654 116.102 62.2369 117.428 62.971C118.755 63.6938 119.784 64.79 120.516 66.2596C121.248 67.718 121.609 69.5607 121.599 71.788L121.524 88.4242L117.501 88.4036L117.575 72.0401C117.584 69.9833 117.057 68.3783 115.994 67.2251C114.931 66.0605 113.468 65.4735 111.605 65.4639C110.32 65.4573 109.171 65.7299 108.158 66.2815C107.155 66.8332 106.362 67.6416 105.777 68.7068C105.193 69.772 104.897 71.066 104.891 72.5887ZM140.379 62.3387L140.363 65.7478L126.795 65.6782L126.811 62.2691L140.379 62.3387ZM130.794 56.0168L134.816 56.0374L134.704 80.9917C134.699 82.128 134.86 82.9811 135.187 83.551C135.525 84.1096 135.955 84.4868 136.477 84.6826C137.01 84.8672 137.572 84.961 138.163 84.964C138.606 84.9663 138.97 84.9454 139.254 84.9014C139.539 84.8461 139.766 84.8018 139.937 84.7686L140.739 88.3864C140.466 88.4872 140.084 88.5876 139.595 88.6873C139.106 88.7984 138.487 88.8521 137.737 88.8482C136.6 88.8424 135.488 88.5924 134.399 88.0982C133.322 87.604 132.427 86.8551 131.716 85.8514C131.016 84.8478 130.669 83.5847 130.676 82.0619L130.794 56.0168ZM154.014 89.2045C152.355 89.1959 150.85 88.8757 149.501 88.2438C148.151 87.6005 147.082 86.6802 146.292 85.483C145.502 84.2744 145.11 82.8178 145.118 81.1133C145.125 79.6133 145.426 78.3989 146.021 77.4701C146.616 76.53 147.409 75.7954 148.4 75.2664C149.391 74.7374 150.484 74.3452 151.678 74.09C152.884 73.8235 154.095 73.6138 155.312 73.4609C156.904 73.2645 158.194 73.1177 159.183 73.0205C160.184 72.912 160.912 72.7282 161.367 72.4692C161.835 72.2102 162.07 71.7569 162.072 71.1092L162.073 70.9728C162.081 69.291 161.626 67.9818 160.71 67.0453C159.805 66.1089 158.427 65.6359 156.574 65.6264C154.654 65.6165 153.146 66.0292 152.052 66.8646C150.957 67.6999 150.186 68.5936 149.738 69.5459L145.927 68.1627C146.615 66.5753 147.53 65.3413 148.67 64.4608C149.822 63.569 151.075 62.9504 152.429 62.6051C153.794 62.2484 155.136 62.0735 156.454 62.0802C157.295 62.0846 158.26 62.1918 159.35 62.4019C160.452 62.6008 161.512 63.0096 162.532 63.6285C163.564 64.2474 164.417 65.1779 165.094 66.4201C165.77 67.6622 166.103 69.323 166.094 71.4025L166.016 88.6524L161.994 88.6317L162.01 85.0863L161.805 85.0853C161.53 85.652 161.072 86.2577 160.433 86.9021C159.794 87.5466 158.945 88.0934 157.886 88.5425C156.827 88.9916 155.536 89.2123 154.014 89.2045ZM154.644 85.594C156.234 85.6022 157.577 85.2965 158.67 84.6771C159.775 84.0578 160.609 83.2552 161.17 82.2695C161.743 81.2838 162.031 80.2455 162.036 79.1546L162.053 75.4728C161.881 75.6764 161.506 75.862 160.925 76.0295C160.356 76.1857 159.697 76.3243 158.946 76.4455C158.207 76.5553 157.485 76.6539 156.78 76.7412C156.086 76.8172 155.524 76.8825 155.092 76.9371C154.046 77.0681 153.067 77.2847 152.157 77.5868C151.258 77.8777 150.529 78.3228 149.969 78.9222C149.421 79.5103 149.145 80.3157 149.14 81.3384C149.134 82.7362 149.646 83.7956 150.677 84.5168C151.719 85.2267 153.041 85.5858 154.644 85.594ZM70.9211 122.165L66.6939 122.143C66.4494 120.926 66.0167 119.856 65.3959 118.932C64.7864 118.009 64.0399 117.232 63.1563 116.602C62.2842 115.962 61.3148 115.479 60.2481 115.156C59.1813 114.832 58.0684 114.667 56.9093 114.661C54.7957 114.651 52.8786 115.175 51.1579 116.234C49.4485 117.294 48.0835 118.86 47.0628 120.935C46.0534 123.009 45.542 125.558 45.5283 128.58C45.5147 131.603 46.0032 134.157 46.9939 136.241C47.9958 138.326 49.3467 139.907 51.0464 140.984C52.7575 142.061 54.6698 142.605 56.7834 142.616C57.9425 142.622 59.0568 142.468 60.1264 142.155C61.196 141.843 62.1697 141.376 63.0475 140.756C63.9368 140.124 64.6903 139.349 65.308 138.432C65.9372 137.503 66.3795 136.437 66.6349 135.234L70.8622 135.256C70.536 137.038 69.9492 138.632 69.102 140.037C68.2547 141.441 67.2039 142.635 65.9495 143.617C64.6951 144.588 63.2883 145.325 61.7292 145.829C60.1815 146.332 58.5269 146.579 56.7656 146.57C53.7884 146.555 51.144 145.814 48.8324 144.348C46.5208 142.881 44.7062 140.804 43.3888 138.115C42.0713 135.426 41.4209 132.241 41.4375 128.559C41.4541 124.878 42.1332 121.699 43.4748 119.024C44.8164 116.349 46.6495 114.291 48.9742 112.848C51.299 111.405 53.9499 110.692 56.9272 110.707C58.6885 110.716 60.3407 110.98 61.8839 111.499C63.4384 112.019 64.8384 112.776 66.0839 113.771C67.3295 114.755 68.3695 115.953 69.2041 117.366C70.0387 118.768 70.611 120.368 70.9211 122.165ZM84.8001 146.85C83.1411 146.842 81.6368 146.522 80.2874 145.89C78.938 145.246 77.8683 144.326 77.0782 143.129C76.2882 141.92 75.897 140.464 75.9047 138.759C75.9114 137.259 76.2124 136.045 76.8075 135.116C77.4026 134.176 78.1957 133.441 79.1867 132.912C80.1778 132.383 81.2704 131.991 82.4648 131.736C83.6705 131.469 84.8817 131.26 86.0983 131.107C87.6901 130.91 88.9806 130.764 89.9697 130.666C90.9702 130.558 91.6983 130.374 92.154 130.115C92.6211 129.856 92.8561 129.403 92.859 128.755L92.8596 128.619C92.8672 126.937 92.4129 125.628 91.4966 124.691C90.5917 123.755 89.2132 123.282 87.3609 123.272C85.4405 123.262 83.9329 123.675 82.8382 124.51C81.7436 125.346 80.9725 126.239 80.525 127.192L76.713 125.809C77.402 124.221 78.3167 122.987 79.457 122.107C80.6088 121.215 81.8615 120.596 83.2154 120.251C84.5806 119.894 85.9224 119.719 87.2405 119.726C88.0814 119.73 89.0469 119.838 90.1368 120.048C91.2382 120.247 92.2989 120.655 93.3188 121.274C94.3502 121.893 95.2039 122.824 95.8802 124.066C96.5564 125.308 96.8898 126.969 96.8804 129.048L96.8027 146.298L92.7801 146.278L92.796 142.732L92.5915 142.731C92.3162 143.298 91.8589 143.903 91.2197 144.548C90.5804 145.192 89.7313 145.739 88.6725 146.188C87.6136 146.637 86.3228 146.858 84.8001 146.85ZM85.43 143.24C87.0209 143.248 88.3632 142.942 89.4569 142.323C90.562 141.704 91.3952 140.901 91.9564 139.915C92.5291 138.93 92.8178 137.891 92.8228 136.8L92.8393 133.119C92.668 133.322 92.2921 133.508 91.7118 133.675C91.1429 133.831 90.4832 133.97 89.7327 134.091C88.9935 134.201 88.2715 134.3 87.5665 134.387C86.873 134.463 86.3102 134.528 85.8781 134.583C84.8321 134.714 83.8538 134.93 82.9434 135.233C82.0443 135.523 81.315 135.969 80.7555 136.568C80.2074 137.156 79.931 137.962 79.9264 138.984C79.9201 140.382 80.4324 141.441 81.4633 142.163C82.5055 142.873 83.8278 143.232 85.43 143.24ZM122.782 126.113L119.164 127.117C118.939 126.514 118.606 125.927 118.166 125.356C117.737 124.775 117.148 124.294 116.4 123.915C115.651 123.537 114.692 123.344 113.521 123.338C111.919 123.33 110.582 123.692 109.511 124.426C108.451 125.147 107.918 126.071 107.913 127.196C107.909 128.196 108.269 128.987 108.993 129.571C109.718 130.154 110.852 130.643 112.396 131.037L116.278 132.011C118.616 132.592 120.357 133.47 121.499 134.646C122.641 135.811 123.209 137.308 123.2 139.138C123.194 140.638 122.756 141.977 121.887 143.154C121.029 144.331 119.832 145.257 118.295 145.931C116.758 146.605 114.972 146.937 112.938 146.926C110.267 146.913 108.06 146.322 106.315 145.154C104.57 143.986 103.47 142.287 103.014 140.057L106.837 139.122C107.194 140.533 107.877 141.594 108.885 142.303C109.904 143.013 111.238 143.372 112.886 143.381C114.761 143.39 116.251 143 117.357 142.21C118.474 141.409 119.035 140.446 119.04 139.321C119.044 138.412 118.73 137.649 118.096 137.032C117.463 136.404 116.487 135.933 115.171 135.619L110.812 134.574C108.417 133.994 106.659 133.104 105.54 131.905C104.431 130.695 103.881 129.187 103.889 127.38C103.896 125.902 104.317 124.598 105.151 123.466C105.997 122.334 107.143 121.447 108.59 120.807C110.047 120.167 111.696 119.851 113.537 119.861C116.128 119.874 118.159 120.453 119.632 121.597C121.115 122.741 122.165 124.246 122.782 126.113ZM136.924 147.118C135.265 147.109 133.761 146.789 132.412 146.157C131.062 145.514 129.993 144.593 129.202 143.396C128.412 142.187 128.021 140.731 128.029 139.026C128.036 137.526 128.337 136.312 128.932 135.383C129.527 134.443 130.32 133.709 131.311 133.18C132.302 132.65 133.395 132.258 134.589 132.003C135.795 131.737 137.006 131.527 138.223 131.374C139.814 131.178 141.105 131.031 142.094 130.934C143.094 130.825 143.823 130.641 144.278 130.382C144.745 130.123 144.98 129.67 144.983 129.022L144.984 128.886C144.992 127.204 144.537 125.895 143.621 124.958C142.716 124.022 141.337 123.549 139.485 123.539C137.565 123.53 136.057 123.942 134.963 124.778C133.868 125.613 133.097 126.507 132.649 127.459L128.837 126.076C129.526 124.488 130.441 123.254 131.581 122.374C132.733 121.482 133.986 120.864 135.34 120.518C136.705 120.162 138.047 119.987 139.365 119.993C140.206 119.998 141.171 120.105 142.261 120.315C143.363 120.514 144.423 120.923 145.443 121.542C146.474 122.161 147.328 123.091 148.004 124.333C148.681 125.575 149.014 127.236 149.005 129.316L148.927 146.565L144.904 146.545L144.92 142.999L144.716 142.998C144.441 143.565 143.983 144.171 143.344 144.815C142.705 145.46 141.856 146.006 140.797 146.456C139.738 146.905 138.447 147.125 136.924 147.118ZM137.554 143.507C139.145 143.515 140.488 143.21 141.581 142.59C142.686 141.971 143.519 141.168 144.081 140.183C144.653 139.197 144.942 138.159 144.947 137.068L144.964 133.386C144.792 133.59 144.416 133.775 143.836 133.943C143.267 134.099 142.608 134.237 141.857 134.359C141.118 134.468 140.396 134.567 139.691 134.654C138.997 134.73 138.435 134.796 138.002 134.85C136.956 134.981 135.978 135.198 135.068 135.5C134.169 135.791 133.439 136.236 132.88 136.835C132.332 137.423 132.055 138.229 132.051 139.252C132.044 140.649 132.557 141.709 133.588 142.43C134.63 143.14 135.952 143.499 137.554 143.507Z" fill="white"/>
</svg>
