<svg width="542" height="198" viewBox="0 0 542 198" fill="none" xmlns="http://www.w3.org/2000/svg">
<path d="M128.699 96.7174C128.623 71.6918 149.506 51.346 175.342 51.2738C201.178 51.2016 222.185 71.4303 222.261 96.456C222.337 121.482 201.465 145.184 175.629 145.256C149.792 145.328 128.776 121.743 128.699 96.7174Z" fill="white"/>
<path d="M268.685 93.7643C266.563 56.8527 242.73 24.5525 208.112 11.6052C185.271 3.0852 158.806 4.06394 137.277 14.2416C129.329 17.9907 7.71984 87.2474 5.95066 89.0621C3.32445 91.7329 3.26492 96.7718 5.82656 99.2955C6.72998 100.208 55.1457 132.041 121.082 175.032C134.94 184.046 144.601 188.198 158.759 191.142C163.855 192.239 180.476 192.767 186.201 192.013C206.758 189.444 224.548 181.07 239.356 167.145C253.843 153.522 263.362 136.468 267.203 117.102C268.32 111.421 269.051 100.064 268.685 93.7643ZM221.315 108.058C219.106 118.642 214.655 126.451 206.646 133.68C194.683 144.577 178.805 148.334 162.983 143.935C135.499 136.358 121.33 104.937 133.622 79.0837C139.63 66.4387 150.49 57.5853 164.609 53.7203C168.74 52.6042 169.988 52.4879 177.237 52.718C184.485 52.9481 185.723 53.1433 189.773 54.5191C197.822 57.269 204.118 61.3143 209.627 67.2575C220.148 78.4525 224.386 93.2416 221.315 108.058Z" fill="white"/>
<path d="M261.605 94.3882C259.648 60.2031 237.376 30.2584 204.998 18.2207C183.636 10.2992 158.875 11.169 138.726 20.5643C131.288 24.0252 17.4621 87.9926 15.8056 89.6706C13.3466 92.1404 13.287 96.8065 15.6817 99.1472C16.5262 99.9931 61.7977 129.539 123.452 169.442C136.41 177.809 145.446 181.668 158.689 184.413C163.456 185.436 179.005 185.948 184.362 185.258C203.596 182.907 220.246 175.177 234.11 162.303C247.675 149.707 256.593 133.927 260.201 115.998C261.25 110.739 261.943 100.222 261.605 94.3882ZM217.277 107.56C215.202 117.357 211.032 124.583 203.534 131.267C192.333 141.341 177.476 144.799 162.677 140.703C136.97 133.649 123.738 104.531 135.257 80.6066C140.887 68.9049 151.054 60.7212 164.267 57.1615C168.132 56.1336 169.3 56.0277 176.081 56.2508C182.863 56.4739 184.02 56.6563 187.809 57.936C195.336 60.4936 201.223 64.2486 206.373 69.7599C216.208 80.1416 220.161 93.8429 217.277 107.56Z" fill="#FB0A0A"/>
<rect width="270.22" height="173.873" rx="20" transform="matrix(0.999983 0.0058594 -0.00523566 0.999986 269.701 8.45026)" fill="#C4C4C4"/>
<rect width="270.22" height="173.873" rx="20" transform="matrix(0.999983 0.0058594 -0.00523566 0.999986 269.701 8.45026)" fill="#C4C4C4"/>
<rect width="270.22" height="173.873" rx="20" transform="matrix(0.999983 0.0058594 -0.00523566 0.999986 269.701 8.45026)" fill="white"/>
<rect width="246.499" height="152.965" rx="20" transform="matrix(0.999983 0.0058594 -0.00523566 0.999986 280.991 19.5213)" fill="white"/>
<rect width="246.499" height="152.965" rx="20" transform="matrix(0.999983 0.0058594 -0.00523566 0.999986 280.991 19.5213)" fill="black"/>
<rect width="246.499" height="152.965" rx="20" transform="matrix(0.999983 0.0058594 -0.00523566 0.999986 280.991 19.5213)" fill="#FF0000"/>
<path d="M339.402 84.0212L339.559 49.1125L351.354 49.173C354.081 49.187 356.318 49.6643 358.064 50.6051C359.81 51.5345 361.099 52.8082 361.933 54.4262C362.767 56.0441 363.179 57.8814 363.17 59.9382C363.16 61.995 362.732 63.8167 361.884 65.4033C361.035 66.9899 359.74 68.2333 357.997 69.1334C356.255 70.0222 354.031 70.4597 351.327 70.4458L341.781 70.3969L341.798 66.5787L351.207 66.627C353.071 66.6365 354.572 66.3715 355.711 65.8319C356.861 65.2923 357.694 64.5239 358.21 63.5265C358.737 62.5178 359.004 61.3146 359.01 59.9169C359.017 58.5192 358.761 57.2963 358.243 56.2482C357.725 55.2 356.893 54.3889 355.748 53.8149C354.603 53.2295 353.087 52.9319 351.201 52.9222L343.769 52.8841L343.629 84.0429L339.402 84.0212ZM355.904 68.4238L364.424 84.1495L359.515 84.1244L351.131 68.3993L355.904 68.4238ZM380.252 84.7762C377.73 84.7632 375.556 84.1953 373.732 83.0723C371.918 81.9379 370.522 80.3626 369.543 78.3462C368.574 76.3185 368.096 73.9637 368.109 71.2819C368.121 68.6001 368.62 66.239 369.606 64.1986C370.604 62.1469 371.986 60.5517 373.753 59.413C375.531 58.263 377.602 57.694 379.965 57.7062C381.329 57.7132 382.674 57.9473 384.002 58.4087C385.329 58.8701 386.536 59.6149 387.623 60.6432C388.709 61.6602 389.572 63.0055 390.212 64.6793C390.853 66.353 391.167 68.4115 391.156 70.8546L391.148 72.5592L370.967 72.4557L370.983 68.9784L387.073 69.061C387.08 67.5837 386.79 66.264 386.205 65.1019C385.63 63.9398 384.805 63.0208 383.728 62.3448C382.663 61.6689 381.403 61.3272 379.949 61.3198C378.347 61.3116 376.959 61.7022 375.785 62.4916C374.622 63.2697 373.725 64.2879 373.095 65.546C372.464 66.8042 372.145 68.1548 372.139 69.598L372.128 71.9162C372.12 73.8934 372.453 75.5713 373.128 76.9498C373.816 78.3169 374.771 79.3616 375.995 80.0838C377.219 80.7947 378.644 81.1542 380.269 81.1626C381.325 81.168 382.281 81.0252 383.134 80.7341C383.999 80.4317 384.746 79.981 385.373 79.3819C386.001 78.7715 386.487 78.0126 386.832 77.1053L390.714 78.2161C390.299 79.5322 389.606 80.6877 388.636 81.6828C387.665 82.6664 386.469 83.433 385.046 83.9826C383.623 84.5207 382.025 84.7853 380.252 84.7762ZM401.308 68.5885L401.238 84.3383L397.215 84.3177L397.333 58.1362L401.219 58.1561L401.201 62.2469L401.542 62.2487C402.161 60.9223 403.098 59.8589 404.351 59.0585C405.605 58.2468 407.221 57.8459 409.198 57.8561C410.971 57.8652 412.52 58.2368 413.846 58.9708C415.173 59.6936 416.202 60.7898 416.934 62.2595C417.666 63.7178 418.027 65.5606 418.017 67.7878L417.942 84.424L413.919 84.4034L413.993 68.0399C414.002 65.9831 413.475 64.3781 412.412 63.2249C411.349 62.0604 409.886 61.4733 408.022 61.4637C406.738 61.4572 405.589 61.7297 404.576 62.2813C403.573 62.833 402.78 63.6414 402.195 64.7066C401.611 65.7718 401.315 67.0658 401.308 68.5885ZM436.797 58.3385L436.781 61.7476L423.213 61.678L423.229 58.269L436.797 58.3385ZM427.212 52.0166L431.234 52.0372L431.122 76.9915C431.117 78.1278 431.278 78.981 431.605 79.5508C431.943 80.1094 432.373 80.4866 432.895 80.6825C433.428 80.867 433.99 80.9608 434.581 80.9638C435.024 80.9661 435.388 80.9452 435.672 80.9012C435.957 80.8459 436.184 80.8016 436.355 80.7684L437.157 84.3862C436.884 84.4871 436.502 84.5874 436.013 84.6871C435.524 84.7983 434.905 84.8519 434.155 84.8481C433.018 84.8422 431.906 84.5922 430.817 84.098C429.74 83.6038 428.845 82.8549 428.134 81.8512C427.434 80.8476 427.087 79.5845 427.094 78.0618L427.212 52.0166ZM450.432 85.2043C448.772 85.1958 447.268 84.8755 445.919 84.2436C444.569 83.6003 443.5 82.68 442.71 81.4828C441.92 80.2742 441.528 78.8176 441.536 77.1131C441.543 75.6131 441.844 74.3987 442.439 73.4699C443.034 72.5298 443.827 71.7952 444.818 71.2662C445.809 70.7372 446.902 70.3451 448.096 70.0898C449.302 69.8233 450.513 69.6136 451.73 69.4607C453.322 69.2643 454.612 69.1175 455.601 69.0203C456.602 68.9118 457.33 68.7281 457.785 68.469C458.253 68.2101 458.488 67.7567 458.49 67.109L458.491 66.9726C458.499 65.2908 458.044 63.9817 457.128 63.0451C456.223 62.1087 454.845 61.6357 452.992 61.6262C451.072 61.6163 449.564 62.0291 448.47 62.8644C447.375 63.6997 446.604 64.5935 446.156 65.5457L442.344 64.1625C443.033 62.5751 443.948 61.3412 445.088 60.4606C446.24 59.5688 447.493 58.9502 448.847 58.6049C450.212 58.2482 451.554 58.0733 452.872 58.0801C453.713 58.0844 454.678 58.1916 455.768 58.4017C456.87 58.6006 457.93 59.0094 458.95 59.6283C459.982 60.2472 460.835 61.1778 461.512 62.4199C462.188 63.662 462.521 65.3228 462.512 67.4024L462.434 84.6522L458.411 84.6315L458.427 81.0861L458.223 81.0851C457.948 81.6519 457.49 82.2575 456.851 82.9019C456.212 83.5464 455.363 84.0932 454.304 84.5423C453.245 84.9914 451.954 85.2121 450.432 85.2043ZM451.061 81.5938C452.652 81.602 453.995 81.2964 455.088 80.677C456.193 80.0576 457.027 79.2551 457.588 78.2693C458.16 77.2836 458.449 76.2453 458.454 75.1544L458.471 71.4726C458.299 71.6763 457.924 71.8618 457.343 72.0293C456.774 72.1855 456.115 72.3242 455.364 72.4453C454.625 72.5552 453.903 72.6537 453.198 72.741C452.504 72.817 451.942 72.8823 451.51 72.9369C450.464 73.0679 449.485 73.2845 448.575 73.5866C447.676 73.8775 446.946 74.3226 446.387 74.922C445.839 75.5101 445.562 76.3155 445.558 77.3383C445.552 78.736 446.064 79.7954 447.095 80.5166C448.137 81.2265 449.459 81.5856 451.061 81.5938ZM354.229 107.188L364.46 136.628L364.87 136.63L375.365 107.297L379.797 107.32L366.822 142.163L362.458 142.14L349.798 107.166L354.229 107.188ZM389.796 142.894C388.137 142.886 386.633 142.565 385.283 141.933C383.934 141.29 382.864 140.37 382.074 139.173C381.284 137.964 380.893 136.507 380.901 134.803C380.907 133.303 381.208 132.089 381.803 131.16C382.399 130.22 383.192 129.485 384.183 128.956C385.174 128.427 386.266 128.035 387.461 127.78C388.666 127.513 389.878 127.303 391.094 127.151C392.686 126.954 393.977 126.807 394.966 126.71C395.966 126.602 396.694 126.418 397.15 126.159C397.617 125.9 397.852 125.447 397.855 124.799L397.856 124.662C397.863 122.981 397.409 121.671 396.493 120.735C395.588 119.798 394.209 119.325 392.357 119.316C390.436 119.306 388.929 119.719 387.834 120.554C386.74 121.389 385.968 122.283 385.521 123.236L381.709 121.852C382.398 120.265 383.313 119.031 384.453 118.15C385.605 117.259 386.858 116.64 388.211 116.295C389.577 115.938 390.918 115.763 392.236 115.77C393.077 115.774 394.043 115.881 395.133 116.092C396.234 116.29 397.295 116.699 398.315 117.318C399.346 117.937 400.2 118.868 400.876 120.11C401.552 121.352 401.886 123.013 401.876 125.092L401.799 142.342L397.776 142.321L397.792 138.776L397.587 138.775C397.312 139.342 396.855 139.947 396.216 140.592C395.576 141.236 394.727 141.783 393.668 142.232C392.61 142.681 391.319 142.902 389.796 142.894ZM390.426 139.284C392.017 139.292 393.359 138.986 394.453 138.367C395.558 137.747 396.391 136.945 396.952 135.959C397.525 134.973 397.814 133.935 397.819 132.844L397.835 129.162C397.664 129.366 397.288 129.552 396.708 129.719C396.139 129.875 395.479 130.014 394.729 130.135C393.989 130.245 393.267 130.344 392.562 130.431C391.869 130.507 391.306 130.572 390.874 130.627C389.828 130.758 388.85 130.974 387.939 131.276C387.04 131.567 386.311 132.012 385.751 132.612C385.203 133.2 384.927 134.005 384.922 135.028C384.916 136.426 385.428 137.485 386.459 138.206C387.501 138.916 388.824 139.275 390.426 139.284ZM413.235 126.65L413.164 142.4L409.141 142.38L409.259 116.198L413.145 116.218L413.127 120.309L413.468 120.311C414.087 118.984 415.024 117.921 416.278 117.12C417.531 116.309 419.147 115.908 421.124 115.918C422.897 115.927 424.446 116.299 425.772 117.033C427.099 117.755 428.128 118.852 428.86 120.321C429.592 121.78 429.953 123.622 429.943 125.85L429.868 142.486L425.845 142.465L425.919 126.102C425.928 124.045 425.401 122.44 424.338 121.287C423.275 120.122 421.812 119.535 419.949 119.526C418.664 119.519 417.515 119.792 416.502 120.343C415.499 120.895 414.706 121.703 414.121 122.769C413.537 123.834 413.241 125.128 413.235 126.65Z" fill="white"/>
</svg>
