<svg width="540" height="198" viewBox="0 0 540 198" fill="none" xmlns="http://www.w3.org/2000/svg">
<path d="M321.138 99.5744C321.062 74.5487 341.944 54.2029 367.781 54.1307C393.617 54.0585 414.623 74.2873 414.7 99.3129C414.776 124.339 393.903 148.041 368.067 148.113C342.231 148.185 321.214 124.6 321.138 99.5744Z" fill="white"/>
<path d="M272.18 104.912C274.349 141.821 298.222 174.091 332.857 186.995C355.708 195.486 382.173 194.473 403.688 184.268C411.631 180.509 533.153 111.098 534.92 109.281C537.542 106.607 537.596 101.568 535.031 99.0477C534.126 98.1368 485.67 66.3649 419.68 23.4579C405.81 14.4611 396.143 10.3212 381.982 7.39535C376.885 6.30467 360.263 5.79817 354.538 6.55908C333.985 9.15457 316.206 17.5507 301.415 31.4941C286.945 45.1356 277.448 62.2023 273.632 81.5727C272.522 87.255 271.806 98.6134 272.18 104.912ZM319.532 90.5582C321.727 79.9724 326.168 72.1571 334.168 64.918C346.117 54.0059 361.99 50.2285 377.817 54.6081C405.311 62.1493 419.52 93.5532 407.261 119.422C401.27 132.074 390.421 140.941 376.306 144.824C372.177 145.946 370.929 146.064 363.68 145.843C356.431 145.622 355.193 145.428 351.141 144.058C343.089 141.318 336.788 137.28 331.272 131.344C320.736 120.163 316.479 105.379 319.532 90.5582Z" fill="white"/>
<path d="M279.259 104.28C281.259 138.462 303.57 168.379 335.962 180.375C357.335 188.27 382.094 187.368 402.231 177.948C409.665 174.477 523.41 110.365 525.064 108.685C527.52 106.212 527.573 101.546 525.176 99.2086C524.33 98.3637 479.021 68.8749 417.316 29.0504C404.348 20.6999 395.307 16.8528 382.06 14.1239C377.292 13.1069 361.743 12.6151 356.386 13.3119C337.155 15.6873 320.515 23.4382 306.667 36.3303C293.119 48.9432 284.22 64.7349 280.635 82.6677C279.593 87.9283 278.914 98.4458 279.259 104.28ZM323.57 91.0516C325.632 81.2516 329.793 74.0204 337.283 67.3275C348.471 57.2386 363.324 53.7623 378.128 57.8398C403.844 64.861 417.113 93.9621 405.624 117.901C400.009 129.61 389.852 137.806 376.644 141.383C372.78 142.416 371.613 142.523 364.831 142.308C358.049 142.094 356.891 141.913 353.101 140.638C345.571 138.09 339.679 134.343 334.522 128.838C324.674 118.469 320.703 104.772 323.57 91.0516Z" fill="#FB0A0A"/>
<rect width="270.22" height="173.873" rx="20" transform="matrix(-0.99999 -0.0045907 0.00396696 -0.999992 271.271 190.228)" fill="#C4C4C4"/>
<rect width="270.22" height="173.873" rx="20" transform="matrix(-0.99999 -0.0045907 0.00396696 -0.999992 271.271 190.228)" fill="#C4C4C4"/>
<rect width="270.22" height="173.873" rx="20" transform="matrix(-0.99999 -0.0045907 0.00396696 -0.999992 271.271 190.228)" fill="white"/>
<rect width="246.499" height="152.965" rx="20" transform="matrix(-0.99999 -0.0045907 0.00396696 -0.999992 259.968 179.171)" fill="white"/>
<rect width="246.499" height="152.965" rx="20" transform="matrix(-0.99999 -0.0045907 0.00396696 -0.999992 259.968 179.171)" fill="black"/>
<rect width="246.499" height="152.965" rx="20" transform="matrix(-0.99999 -0.0045907 0.00396696 -0.999992 259.968 179.171)" fill="#FF0000"/>
<path d="M70.4017 87.0212L70.559 52.1125L82.3543 52.173C85.0815 52.187 87.318 52.6643 89.0638 53.6051C90.8096 54.5345 92.0994 55.8082 92.933 57.4262C93.7666 59.0441 94.1788 60.8814 94.1695 62.9382C94.1603 64.995 93.7316 66.8167 92.8835 68.4033C92.0355 69.9899 90.7401 71.2333 88.9974 72.1334C87.2547 73.0222 85.0311 73.4597 82.3266 73.4458L72.7813 73.3969L72.7985 69.5787L82.2075 69.627C84.0711 69.6365 85.5723 69.3715 86.7111 68.8319C87.8613 68.2923 88.6943 67.5239 89.2101 66.5265C89.7374 65.5178 90.0042 64.3146 90.0105 62.9169C90.0168 61.5192 89.7609 60.2963 89.2429 59.2482C88.7249 58.2 87.8933 57.3889 86.7482 56.8149C85.6031 56.2295 84.0874 55.9319 82.201 55.9222L74.7693 55.8841L74.6289 87.0429L70.4017 87.0212ZM86.904 71.4238L95.4241 87.1495L90.5151 87.1244L82.1313 71.3993L86.904 71.4238ZM111.252 87.7762C108.73 87.7632 106.556 87.1953 104.732 86.0723C102.919 84.9379 101.522 83.3626 100.543 81.3462C99.5745 79.3185 99.0965 76.9637 99.1085 74.2819C99.1206 71.6001 99.6199 69.239 100.606 67.1986C101.604 65.1469 102.986 63.5517 104.753 62.413C106.531 61.263 108.602 60.694 110.965 60.7062C112.329 60.7132 113.674 60.9473 115.002 61.4087C116.329 61.8701 117.536 62.6149 118.623 63.6432C119.709 64.6602 120.572 66.0055 121.212 67.6793C121.853 69.353 122.167 71.4115 122.156 73.8546L122.148 75.5592L101.967 75.4557L101.983 71.9784L118.073 72.061C118.08 70.5837 117.79 69.264 117.205 68.1019C116.63 66.9398 115.805 66.0208 114.728 65.3448C113.663 64.6689 112.404 64.3272 110.949 64.3198C109.347 64.3116 107.959 64.7022 106.785 65.4916C105.622 66.2697 104.725 67.2879 104.095 68.546C103.464 69.8042 103.145 71.1548 103.139 72.598L103.128 74.9162C103.12 76.8934 103.453 78.5713 104.129 79.9498C104.816 81.3169 105.771 82.3616 106.995 83.0838C108.219 83.7947 109.644 84.1542 111.269 84.1626C112.326 84.168 113.281 84.0252 114.134 83.7341C114.999 83.4317 115.746 82.981 116.373 82.3819C117.001 81.7715 117.487 81.0126 117.832 80.1053L121.714 81.2161C121.299 82.5322 120.606 83.6877 119.636 84.6828C118.665 85.6664 117.469 86.433 116.046 86.9826C114.623 87.5207 113.025 87.7853 111.252 87.7762ZM132.309 71.5885L132.238 87.3383L128.215 87.3177L128.333 61.1362L132.219 61.1561L132.201 65.2469L132.542 65.2487C133.161 63.9223 134.098 62.8589 135.351 62.0585C136.605 61.2468 138.221 60.8459 140.198 60.8561C141.971 60.8652 143.52 61.2368 144.846 61.9708C146.173 62.6936 147.202 63.7898 147.934 65.2595C148.666 66.7178 149.027 68.5606 149.017 70.7878L148.942 87.424L144.919 87.4034L144.993 71.0399C145.002 68.9831 144.475 67.3781 143.412 66.2249C142.349 65.0604 140.886 64.4733 139.022 64.4637C137.738 64.4572 136.589 64.7297 135.576 65.2813C134.573 65.833 133.78 66.6414 133.195 67.7066C132.611 68.7718 132.315 70.0658 132.309 71.5885ZM167.797 61.3385L167.781 64.7476L154.213 64.678L154.229 61.269L167.797 61.3385ZM158.212 55.0166L162.234 55.0372L162.122 79.9915C162.117 81.1278 162.278 81.981 162.605 82.5508C162.943 83.1094 163.373 83.4866 163.895 83.6825C164.428 83.867 164.99 83.9608 165.581 83.9638C166.024 83.9661 166.388 83.9452 166.672 83.9012C166.957 83.8459 167.184 83.8016 167.355 83.7684L168.157 87.3862C167.884 87.4871 167.502 87.5874 167.013 87.6871C166.524 87.7983 165.905 87.8519 165.155 87.8481C164.018 87.8422 162.906 87.5922 161.817 87.098C160.74 86.6038 159.845 85.8549 159.134 84.8512C158.434 83.8476 158.087 82.5845 158.094 81.0618L158.212 55.0166ZM181.432 88.2043C179.773 88.1958 178.268 87.8755 176.919 87.2436C175.569 86.6003 174.5 85.68 173.71 84.4828C172.92 83.2742 172.528 81.8176 172.536 80.1131C172.543 78.6131 172.844 77.3987 173.439 76.4699C174.034 75.5298 174.827 74.7952 175.818 74.2662C176.809 73.7372 177.902 73.3451 179.096 73.0898C180.302 72.8233 181.513 72.6136 182.73 72.4607C184.322 72.2643 185.612 72.1175 186.601 72.0203C187.602 71.9118 188.33 71.7281 188.785 71.469C189.253 71.2101 189.488 70.7567 189.49 70.109L189.491 69.9726C189.499 68.2908 189.044 66.9817 188.128 66.0451C187.223 65.1087 185.845 64.6357 183.992 64.6262C182.072 64.6163 180.564 65.0291 179.47 65.8644C178.375 66.6997 177.604 67.5935 177.156 68.5457L173.344 67.1625C174.033 65.5751 174.948 64.3412 176.088 63.4606C177.24 62.5688 178.493 61.9502 179.847 61.6049C181.212 61.2482 182.554 61.0733 183.872 61.0801C184.713 61.0844 185.678 61.1916 186.768 61.4017C187.87 61.6006 188.93 62.0094 189.95 62.6283C190.982 63.2472 191.835 64.1778 192.512 65.4199C193.188 66.662 193.521 68.3228 193.512 70.4024L193.434 87.6522L189.412 87.6315L189.427 84.0861L189.223 84.0851C188.948 84.6519 188.49 85.2575 187.851 85.9019C187.212 86.5464 186.363 87.0932 185.304 87.5423C184.245 87.9914 182.954 88.2121 181.432 88.2043ZM182.061 84.5938C183.652 84.602 184.995 84.2964 186.088 83.677C187.193 83.0576 188.027 82.2551 188.588 81.2693C189.161 80.2836 189.449 79.2453 189.454 78.1544L189.471 74.4726C189.299 74.6763 188.924 74.8618 188.343 75.0293C187.774 75.1855 187.115 75.3242 186.364 75.4453C185.625 75.5552 184.903 75.6537 184.198 75.741C183.504 75.817 182.942 75.8823 182.51 75.9369C181.464 76.0679 180.485 76.2845 179.575 76.5866C178.676 76.8775 177.946 77.3226 177.387 77.922C176.839 78.5101 176.562 79.3155 176.558 80.3383C176.552 81.736 177.064 82.7954 178.095 83.5166C179.137 84.2265 180.459 84.5856 182.061 84.5938ZM80.913 145.076L70.1405 145.021L70.2977 110.112L81.5476 110.17C84.9339 110.187 87.8284 110.901 90.2312 112.311C92.634 113.709 94.4716 115.713 95.7439 118.322C97.0163 120.92 97.6444 124.025 97.6281 127.639C97.6117 131.275 96.9499 134.402 95.6427 137.021C94.3354 139.628 92.44 141.629 89.9565 143.026C87.4729 144.411 84.4584 145.094 80.913 145.076ZM74.3846 141.292L80.6572 141.325C83.5435 141.339 85.9381 140.795 87.8408 139.691C89.7435 138.587 91.1654 137.009 92.1065 134.957C93.0475 132.905 93.5245 130.459 93.5373 127.618C93.55 124.8 93.1007 122.371 92.1894 120.332C91.2782 118.282 89.9102 116.707 88.0856 115.607C86.2611 114.495 83.9852 113.932 81.2579 113.918L74.508 113.884L74.3846 141.292ZM115.069 145.797C112.547 145.784 110.373 145.216 108.548 144.093C106.735 142.958 105.339 141.383 104.359 139.366C103.391 137.339 102.913 134.984 102.925 132.302C102.937 129.62 103.437 127.259 104.423 125.219C105.421 123.167 106.803 121.572 108.57 120.433C110.348 119.283 112.418 118.714 114.782 118.726C116.146 118.733 117.491 118.968 118.819 119.429C120.146 119.89 121.353 120.635 122.439 121.664C123.526 122.68 124.389 124.026 125.029 125.7C125.669 127.373 125.984 129.432 125.973 131.875L125.965 133.579L105.784 133.476L105.799 129.999L121.89 130.081C121.897 128.604 121.607 127.284 121.022 126.122C120.447 124.96 119.622 124.041 118.545 123.365C117.48 122.689 116.22 122.348 114.766 122.34C113.164 122.332 111.775 122.722 110.601 123.512C109.439 124.29 108.542 125.308 107.911 126.566C107.281 127.825 106.962 129.175 106.956 130.618L106.945 132.936C106.936 134.914 107.27 136.592 107.945 137.97C108.632 139.337 109.588 140.382 110.812 141.104C112.036 141.815 113.461 142.175 115.086 142.183C116.142 142.188 117.098 142.045 117.951 141.754C118.816 141.452 119.562 141.001 120.19 140.402C120.818 139.792 121.304 139.033 121.649 138.126L125.531 139.236C125.116 140.553 124.423 141.708 123.453 142.703C122.482 143.687 121.286 144.453 119.863 145.003C118.44 145.541 116.842 145.806 115.069 145.797ZM131.987 155.156L132.15 119.156L136.036 119.176L136.017 123.335L136.494 123.338C136.792 122.885 137.204 122.307 137.73 121.606C138.267 120.892 139.031 120.26 140.022 119.708C141.025 119.145 142.378 118.868 144.083 118.877C146.287 118.888 148.228 119.449 149.905 120.56C151.582 121.671 152.887 123.24 153.821 125.268C154.755 127.295 155.216 129.684 155.204 132.434C155.191 135.207 154.709 137.608 153.756 139.637C152.804 141.655 151.49 143.216 149.815 144.321C148.139 145.415 146.211 145.956 144.029 145.945C142.347 145.936 141.002 145.651 139.993 145.089C138.984 144.516 138.209 143.87 137.667 143.151C137.124 142.421 136.707 141.817 136.413 141.338L136.072 141.336L136.01 155.177L131.987 155.156ZM136.045 132.268C136.036 134.245 136.318 135.991 136.891 137.505C137.464 139.008 138.305 140.188 139.415 141.046C140.525 141.893 141.886 142.32 143.5 142.329C145.182 142.337 146.587 141.901 147.716 141.021C148.856 140.129 149.714 138.929 150.289 137.42C150.876 135.9 151.173 134.209 151.181 132.345C151.19 130.504 150.913 128.844 150.351 127.364C149.801 125.872 148.96 124.692 147.828 123.822C146.707 122.941 145.294 122.497 143.589 122.488C141.953 122.48 140.576 122.887 139.459 123.711C138.341 124.524 137.495 125.667 136.921 127.141C136.346 128.604 136.054 130.313 136.045 132.268ZM168.983 146.141C167.324 146.133 165.82 145.812 164.47 145.181C163.121 144.537 162.051 143.617 161.261 142.42C160.471 141.211 160.08 139.755 160.088 138.05C160.094 136.55 160.395 135.336 160.99 134.407C161.585 133.467 162.379 132.732 163.37 132.203C164.361 131.674 165.453 131.282 166.648 131.027C167.853 130.76 169.065 130.55 170.281 130.398C171.873 130.201 173.163 130.054 174.153 129.957C175.153 129.849 175.881 129.665 176.337 129.406C176.804 129.147 177.039 128.694 177.042 128.046L177.042 127.91C177.05 126.228 176.596 124.919 175.679 123.982C174.775 123.046 173.396 122.573 171.544 122.563C169.623 122.553 168.116 122.966 167.021 123.801C165.926 124.637 165.155 125.53 164.708 126.483L160.896 125.099C161.585 123.512 162.5 122.278 163.64 121.398C164.792 120.506 166.044 119.887 167.398 119.542C168.763 119.185 170.105 119.01 171.423 119.017C172.264 119.021 173.23 119.129 174.32 119.339C175.421 119.537 176.482 119.946 177.502 120.565C178.533 121.184 179.387 122.115 180.063 123.357C180.739 124.599 181.073 126.26 181.063 128.339L180.986 145.589L176.963 145.568L176.979 142.023L176.774 142.022C176.499 142.589 176.042 143.194 175.403 143.839C174.763 144.483 173.914 145.03 172.855 145.479C171.796 145.928 170.506 146.149 168.983 146.141ZM169.613 142.531C171.204 142.539 172.546 142.233 173.64 141.614C174.745 140.995 175.578 140.192 176.139 139.206C176.712 138.22 177.001 137.182 177.006 136.091L177.022 132.41C176.851 132.613 176.475 132.799 175.895 132.966C175.326 133.122 174.666 133.261 173.916 133.382C173.176 133.492 172.454 133.591 171.749 133.678C171.056 133.754 170.493 133.819 170.061 133.874C169.015 134.005 168.037 134.221 167.126 134.524C166.227 134.814 165.498 135.26 164.938 135.859C164.39 136.447 164.114 137.252 164.109 138.275C164.103 139.673 164.615 140.732 165.646 141.454C166.688 142.163 168.011 142.523 169.613 142.531Z" fill="white"/>
</svg>
