<svg width="541" height="198" viewBox="0 0 541 198" fill="none" xmlns="http://www.w3.org/2000/svg">
<path d="M128.699 96.7171C128.623 71.6915 149.506 51.3457 175.342 51.2735C201.178 51.2013 222.185 71.43 222.261 96.4557C222.337 121.481 201.465 145.184 175.629 145.256C149.792 145.328 128.776 121.743 128.699 96.7171Z" fill="white"/>
<path d="M268.684 93.7643C266.563 56.8527 242.73 24.5525 208.111 11.6052C185.271 3.0852 158.805 4.06394 137.277 14.2416C129.329 17.9907 7.71957 87.2474 5.95038 89.0621C3.32417 91.7329 3.26464 96.7718 5.82629 99.2955C6.7297 100.208 55.1454 132.041 121.081 175.032C134.939 184.046 144.601 188.198 158.759 191.142C163.855 192.239 180.475 192.767 186.201 192.013C206.758 189.444 224.548 181.07 239.356 167.145C253.843 153.522 263.362 136.468 267.203 117.102C268.32 111.421 269.05 100.064 268.684 93.7643ZM221.314 108.058C219.106 118.642 214.655 126.451 206.646 133.68C194.683 144.577 178.804 148.334 162.983 143.935C135.499 136.358 121.33 104.937 133.622 79.0837C139.629 66.4387 150.489 57.5853 164.609 53.7203C168.74 52.6042 169.987 52.4879 177.236 52.718C184.485 52.9481 185.723 53.1433 189.773 54.5191C197.821 57.269 204.117 61.3143 209.626 67.2575C220.148 78.4525 224.386 93.2416 221.314 108.058Z" fill="white"/>
<path d="M261.605 94.3882C259.648 60.2031 237.375 30.2584 204.998 18.2207C183.635 10.2992 158.875 11.169 138.726 20.5643C131.287 24.0252 17.4619 87.9926 15.8053 89.6706C13.3463 92.1404 13.2868 96.8065 15.6814 99.1472C16.5259 99.9931 61.7974 129.539 123.452 169.442C136.41 177.809 145.446 181.668 158.689 184.413C163.456 185.436 179.005 185.948 184.362 185.258C203.596 182.907 220.246 175.177 234.11 162.303C247.674 149.707 256.593 133.927 260.201 115.998C261.25 110.739 261.942 100.222 261.605 94.3882ZM217.276 107.56C215.202 117.357 211.032 124.583 203.534 131.267C192.333 141.341 177.475 144.799 162.677 140.703C136.97 133.649 123.738 104.531 135.257 80.6066C140.887 68.9049 151.054 60.7212 164.267 57.1615C168.132 56.1336 169.299 56.0277 176.081 56.2508C182.862 56.4739 184.02 56.6563 187.808 57.936C195.336 60.4936 201.223 64.2486 206.373 69.7599C216.208 80.1416 220.161 93.8429 217.276 107.56Z" fill="#FB0A0A"/>
<rect width="270.22" height="173.873" rx="20" transform="matrix(0.999983 0.0058594 -0.00523566 0.999986 269.701 8.45026)" fill="#C4C4C4"/>
<rect width="270.22" height="173.873" rx="20" transform="matrix(0.999983 0.0058594 -0.00523566 0.999986 269.701 8.45026)" fill="#C4C4C4"/>
<rect width="270.22" height="173.873" rx="20" transform="matrix(0.999983 0.0058594 -0.00523566 0.999986 269.701 8.45026)" fill="white"/>
<rect width="246.499" height="152.965" rx="20" transform="matrix(0.999983 0.0058594 -0.00523566 0.999986 280.991 19.5213)" fill="white"/>
<rect width="246.499" height="152.965" rx="20" transform="matrix(0.999983 0.0058594 -0.00523566 0.999986 280.991 19.5213)" fill="black"/>
<rect width="246.499" height="152.965" rx="20" transform="matrix(0.999983 0.0058594 -0.00523566 0.999986 280.991 19.5213)" fill="#FF0000"/>
<path d="M325.402 81.0212L325.559 46.1125L337.354 46.173C340.082 46.187 342.318 46.6643 344.064 47.6051C345.81 48.5345 347.099 49.8082 347.933 51.4262C348.767 53.0441 349.179 54.8814 349.17 56.9382C349.16 58.995 348.732 60.8167 347.884 62.4033C347.035 63.9899 345.74 65.2333 343.997 66.1334C342.255 67.0222 340.031 67.4597 337.327 67.4458L327.781 67.3969L327.798 63.5787L337.207 63.627C339.071 63.6365 340.572 63.3715 341.711 62.8319C342.861 62.2923 343.694 61.5239 344.21 60.5265C344.737 59.5178 345.004 58.3146 345.01 56.9169C345.017 55.5192 344.761 54.2963 344.243 53.2482C343.725 52.2 342.893 51.3889 341.748 50.8149C340.603 50.2295 339.087 49.9319 337.201 49.9222L329.769 49.8841L329.629 81.0429L325.402 81.0212ZM341.904 65.4238L350.424 81.1495L345.515 81.1244L337.131 65.3993L341.904 65.4238ZM366.252 81.7762C363.73 81.7632 361.556 81.1953 359.732 80.0723C357.919 78.9379 356.522 77.3626 355.543 75.3462C354.574 73.3185 354.096 70.9637 354.109 68.2819C354.121 65.6001 354.62 63.239 355.606 61.1986C356.604 59.1469 357.986 57.5517 359.753 56.413C361.531 55.263 363.602 54.694 365.965 54.7062C367.329 54.7132 368.674 54.9473 370.002 55.4087C371.329 55.8701 372.536 56.6149 373.623 57.6432C374.709 58.6602 375.572 60.0055 376.212 61.6793C376.853 63.353 377.167 65.4115 377.156 67.8546L377.148 69.5592L356.967 69.4557L356.983 65.9784L373.073 66.061C373.08 64.5837 372.79 63.264 372.205 62.1019C371.63 60.9398 370.805 60.0208 369.728 59.3448C368.663 58.6689 367.404 58.3272 365.949 58.3198C364.347 58.3116 362.959 58.7022 361.785 59.4916C360.622 60.2697 359.725 61.2879 359.095 62.546C358.464 63.8042 358.145 65.1548 358.139 66.598L358.128 68.9162C358.12 70.8934 358.453 72.5713 359.129 73.9498C359.816 75.3169 360.771 76.3616 361.995 77.0838C363.219 77.7947 364.644 78.1542 366.269 78.1626C367.326 78.168 368.281 78.0252 369.134 77.7341C369.999 77.4317 370.746 76.981 371.373 76.3819C372.001 75.7715 372.487 75.0126 372.832 74.1053L376.714 75.2161C376.299 76.5322 375.606 77.6877 374.636 78.6828C373.665 79.6664 372.469 80.433 371.046 80.9826C369.623 81.5207 368.025 81.7853 366.252 81.7762ZM387.309 65.5885L387.238 81.3383L383.215 81.3177L383.333 55.1362L387.219 55.1561L387.201 59.2469L387.542 59.2487C388.161 57.9223 389.098 56.8589 390.351 56.0585C391.605 55.2468 393.221 54.8459 395.198 54.8561C396.971 54.8652 398.52 55.2368 399.846 55.9708C401.173 56.6936 402.202 57.7898 402.934 59.2595C403.666 60.7178 404.027 62.5606 404.017 64.7878L403.942 81.424L399.919 81.4034L399.993 65.0399C400.002 62.9831 399.475 61.3781 398.412 60.2249C397.349 59.0604 395.886 58.4733 394.022 58.4637C392.738 58.4572 391.589 58.7297 390.576 59.2813C389.573 59.833 388.78 60.6414 388.195 61.7066C387.611 62.7718 387.315 64.0658 387.309 65.5885ZM422.797 55.3385L422.781 58.7476L409.213 58.678L409.229 55.269L422.797 55.3385ZM413.212 49.0166L417.234 49.0372L417.122 73.9915C417.117 75.1278 417.278 75.981 417.605 76.5508C417.943 77.1094 418.373 77.4866 418.895 77.6825C419.428 77.867 419.99 77.9608 420.581 77.9638C421.024 77.9661 421.388 77.9452 421.672 77.9012C421.957 77.8459 422.184 77.8016 422.355 77.7684L423.157 81.3862C422.884 81.4871 422.502 81.5874 422.013 81.6871C421.524 81.7983 420.905 81.8519 420.155 81.8481C419.018 81.8422 417.906 81.5922 416.817 81.098C415.74 80.6038 414.845 79.8549 414.134 78.8512C413.434 77.8476 413.087 76.5845 413.094 75.0618L413.212 49.0166ZM436.432 82.2043C434.773 82.1958 433.268 81.8755 431.919 81.2436C430.569 80.6003 429.5 79.68 428.71 78.4828C427.92 77.2742 427.528 75.8176 427.536 74.1131C427.543 72.6131 427.844 71.3987 428.439 70.4699C429.034 69.5298 429.827 68.7952 430.818 68.2662C431.809 67.7372 432.902 67.3451 434.096 67.0898C435.302 66.8233 436.513 66.6136 437.73 66.4607C439.322 66.2643 440.612 66.1175 441.601 66.0203C442.602 65.9118 443.33 65.7281 443.785 65.469C444.253 65.2101 444.488 64.7567 444.49 64.109L444.491 63.9726C444.499 62.2908 444.044 60.9817 443.128 60.0451C442.223 59.1087 440.845 58.6357 438.992 58.6262C437.072 58.6163 435.564 59.0291 434.47 59.8644C433.375 60.6997 432.604 61.5935 432.156 62.5457L428.344 61.1625C429.033 59.5751 429.948 58.3412 431.088 57.4606C432.24 56.5688 433.493 55.9502 434.847 55.6049C436.212 55.2482 437.554 55.0733 438.872 55.0801C439.713 55.0844 440.678 55.1916 441.768 55.4017C442.87 55.6006 443.93 56.0094 444.95 56.6283C445.982 57.2472 446.835 58.1778 447.512 59.4199C448.188 60.662 448.521 62.3228 448.512 64.4024L448.434 81.6522L444.412 81.6315L444.427 78.0861L444.223 78.0851C443.948 78.6519 443.49 79.2575 442.851 79.9019C442.212 80.5464 441.363 81.0932 440.304 81.5423C439.245 81.9914 437.954 82.2121 436.432 82.2043ZM437.061 78.5938C438.652 78.602 439.995 78.2964 441.088 77.677C442.193 77.0576 443.027 76.2551 443.588 75.2693C444.161 74.2836 444.449 73.2453 444.454 72.1544L444.471 68.4726C444.299 68.6763 443.924 68.8618 443.343 69.0293C442.774 69.1855 442.115 69.3242 441.364 69.4453C440.625 69.5552 439.903 69.6537 439.198 69.741C438.504 69.817 437.942 69.8823 437.51 69.9369C436.464 70.0679 435.485 70.2845 434.575 70.5866C433.676 70.8775 432.946 71.3226 432.387 71.922C431.839 72.5101 431.562 73.3155 431.558 74.3383C431.552 75.736 432.064 76.7954 433.095 77.5166C434.137 78.2265 435.459 78.5856 437.061 78.5938ZM323.372 107.852L323.389 104.102L349.57 104.236L349.553 107.986L338.576 107.93L338.436 139.089L334.209 139.067L334.349 107.908L323.372 107.852ZM362.569 139.758C360.047 139.745 357.873 139.177 356.049 138.054C354.235 136.92 352.839 135.344 351.86 133.328C350.891 131.3 350.413 128.946 350.425 126.264C350.438 123.582 350.937 121.221 351.923 119.18C352.921 117.129 354.303 115.534 356.07 114.395C357.848 113.245 359.919 112.676 362.282 112.688C363.646 112.695 364.991 112.929 366.319 113.391C367.646 113.852 368.853 114.597 369.939 115.625C371.026 116.642 371.889 117.987 372.529 119.661C373.169 121.335 373.484 123.393 373.473 125.837L373.465 127.541L353.284 127.438L353.299 123.96L369.39 124.043C369.397 122.566 369.107 121.246 368.522 120.084C367.947 118.922 367.122 118.003 366.045 117.327C364.98 116.651 363.72 116.309 362.266 116.302C360.664 116.293 359.276 116.684 358.101 117.473C356.939 118.252 356.042 119.27 355.412 120.528C354.781 121.786 354.462 123.137 354.456 124.58L354.445 126.898C354.436 128.875 354.77 130.553 355.445 131.932C356.132 133.299 357.088 134.343 358.312 135.066C359.536 135.777 360.961 136.136 362.586 136.144C363.642 136.15 364.598 136.007 365.451 135.716C366.316 135.414 367.063 134.963 367.69 134.364C368.318 133.753 368.804 132.994 369.149 132.087L373.031 133.198C372.616 134.514 371.923 135.67 370.953 136.665C369.982 137.648 368.786 138.415 367.363 138.964C365.94 139.503 364.342 139.767 362.569 139.758ZM379.532 139.3L379.65 113.118L383.536 113.138L383.518 117.092L383.791 117.094C384.274 115.801 385.142 114.754 386.396 113.954C387.65 113.153 389.061 112.757 390.629 112.765C390.924 112.767 391.293 112.774 391.737 112.788C392.18 112.802 392.515 112.82 392.742 112.844L392.724 116.935C392.587 116.9 392.275 116.848 391.787 116.777C391.31 116.695 390.804 116.653 390.27 116.65C388.998 116.643 387.86 116.904 386.858 117.433C385.867 117.951 385.079 118.674 384.496 119.603C383.923 120.521 383.634 121.57 383.629 122.752L383.554 139.32L379.532 139.3ZM397.391 139.391L397.509 113.21L401.395 113.23L401.377 117.184L401.65 117.185C402.133 115.892 403.002 114.846 404.255 114.045C405.509 113.245 406.92 112.849 408.488 112.857C408.783 112.858 409.153 112.866 409.596 112.88C410.039 112.893 410.374 112.912 410.601 112.936L410.583 117.027C410.447 116.992 410.134 116.939 409.646 116.868C409.169 116.786 408.664 116.744 408.129 116.741C406.857 116.735 405.719 116.996 404.717 117.525C403.726 118.043 402.938 118.766 402.355 119.695C401.782 120.612 401.494 121.662 401.488 122.844L401.414 139.412L397.391 139.391ZM425.428 140.08C422.905 140.067 420.732 139.499 418.907 138.376C417.094 137.242 415.698 135.667 414.718 133.65C413.75 131.623 413.272 129.268 413.284 126.586C413.296 123.904 413.795 121.543 414.782 119.503C415.78 117.451 417.162 115.856 418.928 114.717C420.706 113.567 422.777 112.998 425.141 113.01C426.504 113.017 427.85 113.252 429.177 113.713C430.505 114.174 431.712 114.919 432.798 115.947C433.884 116.964 434.748 118.31 435.388 119.983C436.028 121.657 436.343 123.716 436.332 126.159L436.324 127.863L416.142 127.76L416.158 124.283L432.249 124.365C432.255 122.888 431.966 121.568 431.38 120.406C430.806 119.244 429.98 118.325 428.904 117.649C427.839 116.973 426.579 116.631 425.124 116.624C423.522 116.616 422.134 117.006 420.96 117.796C419.797 118.574 418.901 119.592 418.27 120.85C417.639 122.108 417.321 123.459 417.314 124.902L417.304 127.22C417.295 129.198 417.628 130.876 418.304 132.254C418.991 133.621 419.947 134.666 421.171 135.388C422.395 136.099 423.819 136.458 425.444 136.467C426.501 136.472 427.456 136.329 428.31 136.038C429.175 135.736 429.921 135.285 430.549 134.686C431.177 134.076 431.663 133.317 432.008 132.41L435.889 133.52C435.474 134.836 434.782 135.992 433.811 136.987C432.841 137.971 431.644 138.737 430.221 139.287C428.798 139.825 427.201 140.089 425.428 140.08ZM446.484 123.893L446.413 139.643L442.39 139.622L442.508 113.44L446.395 113.46L446.376 117.551L446.717 117.553C447.337 116.227 448.273 115.163 449.527 114.363C450.781 113.551 452.396 113.15 454.373 113.16C456.146 113.169 457.695 113.541 459.022 114.275C460.348 114.998 461.377 116.094 462.109 117.564C462.841 119.022 463.202 120.865 463.192 123.092L463.117 139.728L459.095 139.708L459.168 123.344C459.178 121.287 458.651 119.682 457.588 118.529C456.525 117.365 455.062 116.778 453.198 116.768C451.914 116.761 450.765 117.034 449.751 117.586C448.749 118.137 447.955 118.946 447.371 120.011C446.786 121.076 446.491 122.37 446.484 123.893ZM481.102 140.366C478.738 140.354 476.667 139.781 474.888 138.647C473.12 137.512 471.741 135.932 470.75 133.904C469.771 131.876 469.287 129.51 469.299 126.805C469.311 124.078 469.817 121.7 470.814 119.671C471.823 117.642 473.217 116.069 474.995 114.954C476.784 113.838 478.86 113.286 481.224 113.298C483.587 113.31 485.653 113.883 487.421 115.017C489.2 116.151 490.579 117.738 491.558 119.777C492.549 121.816 493.038 124.2 493.026 126.927C493.014 129.631 492.503 131.992 491.494 134.01C490.496 136.028 489.103 137.594 487.314 138.71C485.536 139.826 483.465 140.378 481.102 140.366ZM481.118 136.752C482.914 136.762 484.393 136.309 485.556 135.394C486.719 134.48 487.583 133.274 488.146 131.777C488.71 130.28 488.996 128.656 489.003 126.906C489.011 125.156 488.74 123.524 488.19 122.01C487.64 120.496 486.788 119.27 485.633 118.332C484.478 117.394 483.003 116.921 481.208 116.912C479.412 116.902 477.933 117.361 476.769 118.287C475.606 119.212 474.743 120.43 474.179 121.938C473.615 123.447 473.33 125.076 473.322 126.826C473.314 128.576 473.585 130.202 474.135 131.705C474.685 133.208 475.538 134.423 476.693 135.349C477.848 136.275 479.323 136.743 481.118 136.752Z" fill="white"/>
</svg>
