<svg width="540" height="198" viewBox="0 0 540 198" fill="none" xmlns="http://www.w3.org/2000/svg">
<path d="M321.138 99.5744C321.062 74.5487 341.944 54.2029 367.781 54.1307C393.617 54.0585 414.623 74.2873 414.7 99.3129C414.776 124.339 393.903 148.041 368.067 148.113C342.231 148.185 321.214 124.6 321.138 99.5744Z" fill="white"/>
<path d="M272.18 104.912C274.349 141.821 298.222 174.091 332.857 186.995C355.708 195.486 382.173 194.473 403.688 184.268C411.631 180.509 533.153 111.098 534.92 109.281C537.542 106.607 537.596 101.568 535.031 99.0477C534.126 98.1368 485.67 66.3649 419.68 23.4579C405.81 14.4611 396.143 10.3212 381.982 7.39535C376.885 6.30467 360.263 5.79817 354.538 6.55908C333.985 9.15457 316.206 17.5507 301.415 31.4941C286.945 45.1356 277.448 62.2023 273.632 81.5727C272.522 87.255 271.806 98.6134 272.18 104.912ZM319.532 90.5582C321.727 79.9724 326.168 72.1571 334.168 64.918C346.117 54.0059 361.99 50.2285 377.817 54.6081C405.311 62.1493 419.52 93.5532 407.261 119.422C401.27 132.074 390.421 140.941 376.306 144.824C372.177 145.946 370.929 146.064 363.68 145.843C356.431 145.622 355.193 145.428 351.141 144.058C343.089 141.318 336.788 137.28 331.272 131.344C320.736 120.163 316.479 105.379 319.532 90.5582Z" fill="white"/>
<path d="M279.259 104.28C281.259 138.462 303.57 168.379 335.962 180.375C357.335 188.27 382.094 187.368 402.231 177.948C409.665 174.477 523.41 110.365 525.064 108.685C527.52 106.212 527.573 101.546 525.176 99.2086C524.33 98.3637 479.021 68.8749 417.316 29.0504C404.348 20.6999 395.307 16.8528 382.06 14.1239C377.292 13.1069 361.743 12.6151 356.386 13.3119C337.155 15.6873 320.515 23.4382 306.667 36.3303C293.119 48.9432 284.22 64.7349 280.635 82.6677C279.593 87.9283 278.914 98.4458 279.259 104.28ZM323.57 91.0516C325.632 81.2516 329.793 74.0204 337.283 67.3275C348.471 57.2386 363.324 53.7623 378.128 57.8398C403.844 64.861 417.113 93.9621 405.624 117.901C400.009 129.61 389.852 137.806 376.644 141.383C372.78 142.416 371.613 142.523 364.831 142.308C358.049 142.094 356.891 141.913 353.101 140.638C345.571 138.09 339.679 134.343 334.522 128.838C324.674 118.469 320.703 104.772 323.57 91.0516Z" fill="#FB0A0A"/>
<rect width="270.22" height="173.873" rx="20" transform="matrix(-0.99999 -0.0045907 0.00396696 -0.999992 271.271 190.228)" fill="#C4C4C4"/>
<rect width="270.22" height="173.873" rx="20" transform="matrix(-0.99999 -0.0045907 0.00396696 -0.999992 271.271 190.228)" fill="#C4C4C4"/>
<rect width="270.22" height="173.873" rx="20" transform="matrix(-0.99999 -0.0045907 0.00396696 -0.999992 271.271 190.228)" fill="white"/>
<rect width="246.499" height="152.965" rx="20" transform="matrix(-0.99999 -0.0045907 0.00396696 -0.999992 259.968 179.171)" fill="white"/>
<rect width="246.499" height="152.965" rx="20" transform="matrix(-0.99999 -0.0045907 0.00396696 -0.999992 259.968 179.171)" fill="black"/>
<rect width="246.499" height="152.965" rx="20" transform="matrix(-0.99999 -0.0045907 0.00396696 -0.999992 259.968 179.171)" fill="#FF0000"/>
<path d="M53.9908 51.1198L64.2219 80.559L64.631 80.5611L75.1269 51.2282L79.5586 51.2509L66.5834 86.0939L62.2198 86.0716L49.559 51.0971L53.9908 51.1198ZM92.8306 86.774C90.3079 86.7611 88.1343 86.1931 86.3098 85.0701C84.4967 83.9358 83.1003 82.3604 82.1208 80.344C81.1526 78.3163 80.6746 75.9615 80.6867 73.2797C80.6988 70.5979 81.198 68.2368 82.1845 66.1964C83.1824 64.1447 84.5646 62.5495 86.3311 61.4108C88.109 60.2608 90.1798 59.6919 92.5434 59.704C93.907 59.711 95.2526 59.9452 96.58 60.4065C97.9075 60.8679 99.1144 61.6127 100.201 62.641C101.287 63.658 102.15 65.0033 102.79 66.6771C103.431 68.3509 103.745 70.4093 103.734 72.8525L103.727 74.557L83.545 74.4535L83.5607 70.9763L99.6514 71.0588C99.6581 69.5815 99.3686 68.2618 98.7829 67.0997C98.2086 65.9377 97.3831 65.0187 96.3066 64.3427C95.2415 63.6668 93.9816 63.3251 92.5271 63.3176C90.9249 63.3094 89.5367 63.7 88.3627 64.4894C87.2001 65.2676 86.3035 66.2857 85.6728 67.5439C85.0421 68.802 84.7235 70.1527 84.717 71.5958L84.7066 73.914C84.6977 75.8913 85.031 77.5691 85.7066 78.9476C86.3937 80.3148 87.3492 81.3595 88.5732 82.0817C89.7973 82.7925 91.2219 83.1521 92.8468 83.1604C93.9036 83.1658 94.8588 83.023 95.7124 82.7319C96.5774 82.4295 97.3238 81.9788 97.9515 81.3798C98.5792 80.7693 99.0656 80.0104 99.4106 79.1031L103.292 80.2139C102.877 81.53 102.184 82.6856 101.214 83.6806C100.244 84.6643 99.0469 85.4309 97.6239 85.9804C96.2011 86.5186 94.6033 86.7831 92.8306 86.774ZM113.887 70.5863L113.816 86.3362L109.793 86.3155L109.911 60.134L113.797 60.1539L113.779 64.2448L114.12 64.2465C114.739 62.9201 115.676 61.8568 116.93 61.0564C118.183 60.2446 119.799 59.8438 121.776 59.8539C123.549 59.863 125.098 60.2346 126.424 60.9687C127.751 61.6914 128.78 62.7876 129.512 64.2573C130.244 65.7156 130.605 67.5584 130.595 69.7856L130.52 86.4218L126.497 86.4012L126.571 70.0377C126.58 67.9809 126.053 66.3759 124.99 65.2227C123.928 64.0582 122.464 63.4711 120.601 63.4616C119.317 63.455 118.168 63.7275 117.154 64.2791C116.151 64.8308 115.358 65.6393 114.773 66.7045C114.189 67.7697 113.893 69.0636 113.887 70.5863ZM149.375 60.3364L149.36 63.7454L135.792 63.6758L135.807 60.2668L149.375 60.3364ZM139.79 54.0144L143.812 54.035L143.7 78.9893C143.695 80.1257 143.856 80.9788 144.183 81.5487C144.521 82.1072 144.951 82.4844 145.473 82.6803C146.006 82.8648 146.568 82.9586 147.159 82.9617C147.603 82.9639 147.966 82.9431 148.251 82.8991C148.535 82.8437 148.762 82.7994 148.933 82.7662L149.735 86.384C149.462 86.4849 149.081 86.5852 148.591 86.685C148.102 86.7961 147.483 86.8497 146.733 86.8459C145.596 86.8401 144.484 86.59 143.395 86.0958C142.318 85.6016 141.423 84.8527 140.712 83.8491C140.012 82.8455 139.665 81.5823 139.672 80.0596L139.79 54.0144ZM163.01 87.2021C161.351 87.1936 159.846 86.8734 158.497 86.2414C157.148 85.5982 156.078 84.6779 155.288 83.4806C154.498 82.272 154.107 80.8155 154.114 79.1109C154.121 77.6109 154.422 76.3966 155.017 75.4678C155.612 74.5276 156.405 73.7931 157.396 73.264C158.387 72.735 159.48 72.3429 160.674 72.0877C161.88 71.8211 163.091 71.6114 164.308 71.4586C165.9 71.2622 167.19 71.1154 168.179 71.0182C169.18 70.9097 169.908 70.7259 170.364 70.4669C170.831 70.2079 171.066 69.7546 171.069 69.1068L171.069 68.9705C171.077 67.2887 170.622 65.9795 169.706 65.043C168.801 64.1065 167.423 63.6335 165.571 63.624C163.65 63.6142 162.143 64.0269 161.048 64.8622C159.953 65.6975 159.182 66.5913 158.735 67.5436L154.923 66.1604C155.612 64.573 156.526 63.339 157.667 62.4585C158.818 61.5666 160.071 60.9481 161.425 60.6027C162.79 60.2461 164.132 60.0711 165.45 60.0779C166.291 60.0822 167.256 60.1894 168.346 60.3996C169.448 60.5984 170.508 61.0073 171.528 61.6261C172.56 62.2451 173.414 63.1756 174.09 64.4177C174.766 65.6598 175.099 67.3207 175.09 69.4002L175.012 86.65L170.99 86.6294L171.006 83.084L170.801 83.0829C170.526 83.6497 170.069 84.2553 169.429 84.8998C168.79 85.5442 167.941 86.091 166.882 86.5401C165.823 86.9893 164.532 87.2099 163.01 87.2021ZM163.64 83.5917C165.231 83.5998 166.573 83.2942 167.667 82.6748C168.772 82.0554 169.605 81.2529 170.166 80.2671C170.739 79.2814 171.027 78.2431 171.032 77.1522L171.049 73.4704C170.878 73.6741 170.502 73.8597 169.921 74.0271C169.353 74.1833 168.693 74.322 167.942 74.4431C167.203 74.553 166.481 74.6516 165.776 74.7389C165.083 74.8148 164.52 74.8801 164.088 74.9347C163.042 75.0657 162.063 75.2823 161.153 75.5845C160.254 75.8753 159.525 76.3205 158.965 76.9199C158.417 77.508 158.141 78.3134 158.136 79.3361C158.13 80.7338 158.642 81.7933 159.673 82.5145C160.715 83.2244 162.037 83.5834 163.64 83.5917ZM50.3717 112.852L50.3886 109.102L76.5701 109.236L76.5532 112.986L65.5761 112.93L65.4357 144.089L61.2085 144.067L61.3489 112.908L50.3717 112.852ZM89.5693 144.758C87.0466 144.745 84.873 144.177 83.0485 143.054C81.2354 141.92 79.8391 140.344 78.8595 138.328C77.8914 136.3 77.4134 133.946 77.4254 131.264C77.4375 128.582 77.9368 126.221 78.9233 124.18C79.9212 122.129 81.3034 120.534 83.0699 119.395C84.8478 118.245 86.9186 117.676 89.2822 117.688C90.6458 117.695 91.9913 117.929 93.3188 118.391C94.6463 118.852 95.8532 119.597 96.9395 120.625C98.0258 121.642 98.8891 122.987 99.5293 124.661C100.169 126.335 100.484 128.393 100.473 130.837L100.465 132.541L80.2838 132.438L80.2995 128.96L96.3902 129.043C96.3968 127.566 96.1073 126.246 95.5216 125.084C94.9473 123.922 94.1219 123.003 93.0454 122.327C91.9803 121.651 90.7204 121.309 89.2659 121.302C87.6636 121.293 86.2755 121.684 85.1015 122.473C83.9389 123.252 83.0422 124.27 82.4116 125.528C81.7809 126.786 81.4623 128.137 81.4558 129.58L81.4454 131.898C81.4364 133.875 81.7698 135.553 82.4454 136.932C83.1324 138.299 84.088 139.343 85.312 140.066C86.5361 140.777 87.9606 141.136 89.5856 141.144C90.6424 141.15 91.5976 141.007 92.4512 140.716C93.3162 140.414 94.0626 139.963 94.6903 139.364C95.318 138.753 95.8044 137.994 96.1494 137.087L100.031 138.198C99.6158 139.514 98.9231 140.67 97.9527 141.665C96.9823 142.648 95.7857 143.415 94.3627 143.964C92.9398 144.503 91.342 144.767 89.5693 144.758ZM106.532 144.3L106.65 118.118L110.536 118.138L110.518 122.092L110.791 122.094C111.274 120.801 112.142 119.754 113.396 118.954C114.65 118.153 116.061 117.757 117.629 117.765C117.924 117.767 118.293 117.774 118.737 117.788C119.18 117.802 119.515 117.82 119.742 117.844L119.724 121.935C119.587 121.9 119.275 121.848 118.787 121.777C118.31 121.695 117.804 121.653 117.27 121.65C115.998 121.643 114.86 121.904 113.858 122.433C112.867 122.951 112.079 123.674 111.496 124.603C110.923 125.521 110.634 126.57 110.629 127.752L110.554 144.32L106.532 144.3ZM124.391 144.391L124.509 118.21L128.395 118.23L128.377 122.184L128.65 122.185C129.133 120.892 130.002 119.846 131.255 119.045C132.509 118.245 133.92 117.849 135.488 117.857C135.783 117.858 136.153 117.866 136.596 117.88C137.039 117.893 137.374 117.912 137.601 117.936L137.583 122.027C137.447 121.992 137.134 121.939 136.646 121.868C136.169 121.786 135.664 121.744 135.129 121.741C133.857 121.735 132.719 121.996 131.717 122.525C130.726 123.043 129.938 123.766 129.355 124.695C128.782 125.612 128.494 126.662 128.488 127.844L128.414 144.412L124.391 144.391ZM152.428 145.08C149.905 145.067 147.732 144.499 145.907 143.376C144.094 142.242 142.698 140.667 141.718 138.65C140.75 136.623 140.272 134.268 140.284 131.586C140.296 128.904 140.795 126.543 141.782 124.503C142.78 122.451 144.162 120.856 145.928 119.717C147.706 118.567 149.777 117.998 152.141 118.01C153.504 118.017 154.85 118.252 156.177 118.713C157.505 119.174 158.712 119.919 159.798 120.947C160.884 121.964 161.748 123.31 162.388 124.983C163.028 126.657 163.343 128.716 163.332 131.159L163.324 132.863L143.142 132.76L143.158 129.283L159.249 129.365C159.255 127.888 158.966 126.568 158.38 125.406C157.806 124.244 156.98 123.325 155.904 122.649C154.839 121.973 153.579 121.631 152.124 121.624C150.522 121.616 149.134 122.006 147.96 122.796C146.797 123.574 145.901 124.592 145.27 125.85C144.639 127.108 144.321 128.459 144.314 129.902L144.304 132.22C144.295 134.198 144.628 135.876 145.304 137.254C145.991 138.621 146.947 139.666 148.171 140.388C149.395 141.099 150.819 141.458 152.444 141.467C153.501 141.472 154.456 141.329 155.31 141.038C156.175 140.736 156.921 140.285 157.549 139.686C158.177 139.076 158.663 138.317 159.008 137.41L162.889 138.52C162.474 139.836 161.782 140.992 160.811 141.987C159.841 142.971 158.644 143.737 157.221 144.287C155.798 144.825 154.201 145.089 152.428 145.08ZM173.484 128.893L173.413 144.643L169.39 144.622L169.508 118.44L173.395 118.46L173.376 122.551L173.717 122.553C174.337 121.227 175.273 120.163 176.527 119.363C177.781 118.551 179.396 118.15 181.373 118.16C183.146 118.169 184.695 118.541 186.022 119.275C187.348 119.998 188.377 121.094 189.109 122.564C189.841 124.022 190.202 125.865 190.192 128.092L190.117 144.728L186.095 144.708L186.168 128.344C186.178 126.287 185.651 124.682 184.588 123.529C183.525 122.365 182.062 121.778 180.198 121.768C178.914 121.761 177.765 122.034 176.751 122.586C175.749 123.137 174.955 123.946 174.371 125.011C173.786 126.076 173.491 127.37 173.484 128.893ZM208.102 145.366C205.738 145.354 203.667 144.781 201.888 143.647C200.12 142.512 198.741 140.932 197.75 138.904C196.771 136.876 196.287 134.51 196.299 131.805C196.311 129.078 196.817 126.7 197.814 124.671C198.823 122.642 200.217 121.069 201.995 119.954C203.784 118.838 205.86 118.286 208.224 118.298C210.587 118.31 212.653 118.883 214.421 120.017C216.2 121.151 217.579 122.738 218.558 124.777C219.549 126.816 220.038 129.2 220.026 131.927C220.014 134.631 219.503 136.992 218.494 139.01C217.496 141.028 216.103 142.594 214.314 143.71C212.536 144.826 210.465 145.378 208.102 145.366ZM208.118 141.752C209.914 141.762 211.393 141.309 212.556 140.394C213.719 139.48 214.583 138.274 215.146 136.777C215.71 135.28 215.996 133.656 216.003 131.906C216.011 130.156 215.74 128.524 215.19 127.01C214.64 125.496 213.788 124.27 212.633 123.332C211.478 122.394 210.003 121.921 208.208 121.912C206.412 121.902 204.933 122.361 203.769 123.287C202.606 124.212 201.743 125.43 201.179 126.938C200.615 128.447 200.33 130.076 200.322 131.826C200.314 133.576 200.585 135.202 201.135 136.705C201.685 138.208 202.538 139.423 203.693 140.349C204.848 141.275 206.323 141.743 208.118 141.752Z" fill="white"/>
</svg>
