<svg width="541" height="199" viewBox="0 0 541 199" fill="none" xmlns="http://www.w3.org/2000/svg">
<path d="M412.155 101.75C412.19 126.776 391.273 147.087 365.436 147.115C339.6 147.144 318.628 126.88 318.593 101.855C318.559 76.8288 339.471 53.1616 365.308 53.1327C391.144 53.1038 412.121 76.7243 412.155 101.75Z" fill="white"/>
<path d="M272.165 104.468C274.225 141.383 298.004 173.723 332.6 186.728C355.427 195.287 381.894 194.352 403.439 184.211C411.393 180.475 533.119 111.422 534.891 109.611C537.522 106.944 537.59 101.906 535.032 99.3775C534.13 98.4639 485.768 66.5493 419.904 23.4481C406.062 14.4105 396.407 10.2421 382.254 7.27455C377.16 6.16886 360.54 5.61339 354.813 6.35743C334.252 8.89235 316.448 17.236 301.617 31.1359C287.107 44.7346 277.559 61.7733 273.686 81.1323C272.559 86.8113 271.81 98.1676 272.165 104.468ZM319.559 90.253C321.786 79.6737 326.25 71.8716 334.271 64.6561C346.252 53.7792 362.137 50.0486 377.951 54.4748C405.422 62.097 419.538 93.5426 407.203 119.375C401.174 132.01 390.299 140.845 376.173 144.686C372.041 145.795 370.793 145.91 363.544 145.667C356.296 145.425 355.059 145.228 351.011 143.845C342.967 141.082 336.678 137.026 331.179 131.074C320.676 119.861 316.463 105.065 319.559 90.253Z" fill="white"/>
<path d="M279.246 103.856C281.146 138.044 303.368 168.026 335.725 180.118C357.074 188.075 381.836 187.247 402.001 177.886C409.445 174.437 523.378 110.661 525.037 108.986C527.5 106.52 527.568 101.854 525.177 99.5093C524.334 98.6619 479.112 69.0397 417.525 29.0336C404.581 20.6449 395.551 16.7712 382.312 14.0033C377.548 12.9723 361.999 12.4347 356.641 13.1157C337.403 15.4344 320.74 23.1362 306.854 35.9875C293.269 48.5604 284.324 64.3258 280.686 82.248C279.628 87.5055 278.918 98.0209 279.246 103.856ZM323.596 90.7584C325.687 80.9645 329.869 73.7455 337.379 67.0748C348.596 57.0189 363.46 53.5864 378.251 57.7074C403.947 64.8044 417.13 93.9444 405.57 117.849C399.921 129.542 389.74 137.708 376.522 141.246C372.654 142.267 371.487 142.371 364.706 142.137C357.924 141.902 356.767 141.718 352.981 140.432C345.458 137.861 339.577 134.097 334.437 128.577C324.619 118.178 320.688 104.471 323.596 90.7584Z" fill="#FB0A0A"/>
<rect width="270.22" height="173.873" rx="20" transform="matrix(-0.999972 -0.00753688 0.00691315 -0.999976 271.006 189.78)" fill="#C4C4C4"/>
<rect width="270.22" height="173.873" rx="20" transform="matrix(-0.999972 -0.00753688 0.00691315 -0.999976 271.006 189.78)" fill="#C4C4C4"/>
<rect width="270.22" height="173.873" rx="20" transform="matrix(-0.999972 -0.00753688 0.00691315 -0.999976 271.006 189.78)" fill="white"/>
<rect width="246.499" height="152.965" rx="20" transform="matrix(-0.999972 -0.00753688 0.00691315 -0.999976 259.735 178.69)" fill="white"/>
<rect width="246.499" height="152.965" rx="20" transform="matrix(-0.999972 -0.00753688 0.00691315 -0.999976 259.735 178.69)" fill="black"/>
<rect width="246.499" height="152.965" rx="20" transform="matrix(-0.999972 -0.00753688 0.00691315 -0.999976 259.735 178.69)" fill="#FF0000"/>
<path d="M72.9894 50.12L83.2205 79.5592L83.6296 79.5613L94.1255 50.2284L98.5572 50.2511L85.5819 85.0941L81.2184 85.0717L68.5576 50.0972L72.9894 50.12ZM111.829 85.7742C109.306 85.7612 107.133 85.1933 105.308 84.0702C103.495 82.9359 102.099 81.3606 101.119 79.3442C100.151 77.3164 99.6732 74.9617 99.6853 72.2799C99.6973 69.5981 100.197 67.237 101.183 65.1966C102.181 63.1448 103.563 61.5496 105.33 60.411C107.108 59.261 109.178 58.692 111.542 58.7042C112.906 58.7112 114.251 58.9453 115.579 59.4067C116.906 59.868 118.113 60.6129 119.199 61.6412C120.286 62.6581 121.149 64.0035 121.789 65.6773C122.429 67.351 122.744 69.4095 122.733 71.8526L122.725 73.5572L102.544 73.4537L102.559 69.9764L118.65 70.0589C118.657 68.5817 118.367 67.262 117.781 66.0999C117.207 64.9378 116.382 64.0188 115.305 63.3428C114.24 62.6669 112.98 62.3252 111.526 62.3178C109.923 62.3095 108.535 62.7002 107.361 63.4896C106.199 64.2677 105.302 65.2859 104.671 66.544C104.041 67.8022 103.722 69.1528 103.716 70.596L103.705 72.9142C103.696 74.8914 104.03 76.5693 104.705 77.9478C105.392 79.3149 106.348 80.3596 107.572 81.0818C108.796 81.7926 110.22 82.1522 111.845 82.1606C112.902 82.166 113.857 82.0232 114.711 81.7321C115.576 81.4297 116.322 80.979 116.95 80.3799C117.578 79.7695 118.064 79.0106 118.409 78.1033L122.291 79.2141C121.876 80.5302 121.183 81.6857 120.212 82.6808C119.242 83.6644 118.045 84.431 116.623 84.9806C115.2 85.5187 113.602 85.7833 111.829 85.7742ZM132.885 69.5865L132.814 85.3363L128.792 85.3157L128.91 59.1341L132.796 59.1541L132.777 63.2449L133.118 63.2467C133.738 61.9203 134.675 60.8569 135.928 60.0565C137.182 59.2447 138.797 58.8439 140.775 58.8541C142.547 58.8632 144.097 59.2348 145.423 59.9688C146.749 60.6916 147.778 61.7878 148.51 63.2574C149.243 64.7158 149.604 66.5585 149.594 68.7858L149.519 85.422L145.496 85.4014L145.57 69.0379C145.579 66.9811 145.052 65.3761 143.989 64.2229C142.926 63.0583 141.463 62.4713 139.599 62.4617C138.315 62.4551 137.166 62.7277 136.152 63.2793C135.15 63.831 134.356 64.6394 133.772 65.7046C133.188 66.7698 132.892 68.0638 132.885 69.5865ZM168.374 59.3365L168.358 62.7456L154.79 62.676L154.806 59.2669L168.374 59.3365ZM158.788 53.0146L162.811 53.0352L162.699 77.9895C162.693 79.1258 162.854 79.9789 163.181 80.5488C163.52 81.1074 163.95 81.4846 164.472 81.6804C165.005 81.865 165.567 81.9588 166.158 81.9618C166.601 81.9641 166.965 81.9432 167.249 81.8992C167.533 81.8439 167.761 81.7996 167.932 81.7664L168.733 85.3842C168.46 85.485 168.079 85.5854 167.59 85.6851C167.101 85.7963 166.481 85.8499 165.731 85.8461C164.595 85.8402 163.482 85.5902 162.394 85.096C161.316 84.6018 160.422 83.8529 159.711 82.8492C159.011 81.8456 158.664 80.5825 158.671 79.0598L158.788 53.0146ZM182.008 86.2023C180.349 86.1937 178.845 85.8735 177.496 85.2416C176.146 84.5983 175.076 83.678 174.286 82.4808C173.496 81.2722 173.105 79.8156 173.113 78.1111C173.12 76.6111 173.421 75.3967 174.016 74.4679C174.611 73.5278 175.404 72.7932 176.395 72.2642C177.386 71.7352 178.479 71.3431 179.673 71.0878C180.879 70.8213 182.09 70.6116 183.307 70.4587C184.898 70.2623 186.189 70.1155 187.178 70.0183C188.178 69.9098 188.906 69.7261 189.362 69.467C189.829 69.2081 190.064 68.7547 190.067 68.107L190.068 67.9706C190.075 66.2888 189.621 64.9797 188.705 64.0431C187.8 63.1067 186.421 62.6337 184.569 62.6242C182.649 62.6143 181.141 63.0271 180.046 63.8624C178.952 64.6977 178.181 65.5914 177.733 66.5437L173.921 65.1605C174.61 63.5731 175.525 62.3391 176.665 61.4586C177.817 60.5668 179.07 59.9482 180.424 59.6029C181.789 59.2462 183.131 59.0713 184.449 59.0781C185.29 59.0824 186.255 59.1896 187.345 59.3997C188.446 59.5986 189.507 60.0074 190.527 60.6263C191.558 61.2452 192.412 62.1758 193.088 63.4179C193.765 64.66 194.098 66.3208 194.089 68.4003L194.011 85.6502L189.988 85.6295L190.004 82.0841L189.8 82.0831C189.524 82.6498 189.067 83.2555 188.428 83.8999C187.789 84.5444 186.94 85.0912 185.881 85.5403C184.822 85.9894 183.531 86.2101 182.008 86.2023ZM182.638 82.5918C184.229 82.6 185.571 82.2943 186.665 81.6749C187.77 81.0556 188.603 80.253 189.165 79.2673C189.737 78.2816 190.026 77.2433 190.031 76.1524L190.048 72.4706C189.876 72.6742 189.5 72.8598 188.92 73.0273C188.351 73.1835 187.691 73.3221 186.941 73.4433C186.202 73.5531 185.48 73.6517 184.775 73.739C184.081 73.815 183.518 73.8803 183.086 73.9349C182.04 74.0659 181.062 74.2825 180.152 74.5846C179.252 74.8755 178.523 75.3206 177.964 75.92C177.416 76.5081 177.139 77.3135 177.135 78.3363C177.128 79.734 177.641 80.7934 178.671 81.5146C179.714 82.2245 181.036 82.5836 182.638 82.5918ZM99.3377 119.165L95.1105 119.143C94.866 117.926 94.4333 116.856 93.8124 115.932C93.203 115.009 92.4564 114.232 91.5729 113.602C90.7008 112.962 89.7314 112.479 88.6646 112.156C87.5979 111.832 86.485 111.667 85.3259 111.661C83.2123 111.65 81.2951 112.175 79.5744 113.234C77.8651 114.294 76.5001 115.86 75.4794 117.935C74.47 120.009 73.9585 122.558 73.9449 125.58C73.9313 128.603 74.4198 131.157 75.4104 133.241C76.4124 135.326 77.7632 136.907 79.463 137.984C81.174 139.061 83.0864 139.605 85.2 139.616C86.3591 139.622 87.4734 139.468 88.543 139.155C89.6126 138.843 90.5863 138.376 91.4641 137.756C92.3533 137.124 93.1068 136.349 93.7246 135.432C94.3538 134.503 94.7961 133.437 95.0515 132.234L99.2787 132.256C98.9525 134.038 98.3658 135.632 97.5185 137.037C96.6713 138.441 95.6205 139.635 94.366 140.617C93.1116 141.588 91.7049 142.325 90.1458 142.828C88.598 143.332 86.9435 143.579 85.1822 143.57C82.2049 143.555 79.5605 142.814 77.2489 141.348C74.9373 139.881 73.1228 137.804 71.8053 135.115C70.4879 132.426 69.8375 129.241 69.8541 125.559C69.8706 121.878 70.5497 118.699 71.8913 116.024C73.233 113.349 75.0661 111.291 77.3908 109.848C79.7155 108.405 82.3665 107.692 85.3437 107.707C87.1051 107.716 88.7573 107.98 90.3004 108.499C91.8549 109.019 93.2549 109.776 94.5005 110.771C95.746 111.755 96.7861 112.953 97.6207 114.366C98.4553 115.768 99.0276 117.368 99.3377 119.165ZM113.217 143.85C111.558 143.842 110.053 143.521 108.704 142.89C107.355 142.246 106.285 141.326 105.495 140.129C104.705 138.92 104.314 137.464 104.321 135.759C104.328 134.259 104.629 133.045 105.224 132.116C105.819 131.176 106.612 130.441 107.603 129.912C108.594 129.383 109.687 128.991 110.881 128.736C112.087 128.469 113.298 128.26 114.515 128.107C116.107 127.91 117.397 127.763 118.386 127.666C119.387 127.558 120.115 127.374 120.571 127.115C121.038 126.856 121.273 126.403 121.276 125.755L121.276 125.619C121.284 123.937 120.829 122.628 119.913 121.691C119.008 120.755 117.63 120.282 115.777 120.272C113.857 120.262 112.349 120.675 111.255 121.51C110.16 122.346 109.389 123.239 108.942 124.192L105.13 122.808C105.819 121.221 106.733 119.987 107.874 119.107C109.025 118.215 110.278 117.596 111.632 117.251C112.997 116.894 114.339 116.719 115.657 116.726C116.498 116.73 117.463 116.838 118.553 117.048C119.655 117.247 120.715 117.655 121.735 118.274C122.767 118.893 123.62 119.824 124.297 121.066C124.973 122.308 125.306 123.969 125.297 126.048L125.219 143.298L121.197 143.277L121.213 139.732L121.008 139.731C120.733 140.298 120.275 140.903 119.636 141.548C118.997 142.192 118.148 142.739 117.089 143.188C116.03 143.637 114.739 143.858 113.217 143.85ZM113.847 140.24C115.437 140.248 116.78 139.942 117.874 139.323C118.979 138.704 119.812 137.901 120.373 136.915C120.946 135.93 121.234 134.891 121.239 133.8L121.256 130.119C121.085 130.322 120.709 130.508 120.128 130.675C119.559 130.831 118.9 130.97 118.149 131.091C117.41 131.201 116.688 131.3 115.983 131.387C115.29 131.463 114.727 131.528 114.295 131.583C113.249 131.714 112.27 131.93 111.36 132.233C110.461 132.523 109.732 132.969 109.172 133.568C108.624 134.156 108.348 134.961 108.343 135.984C108.337 137.382 108.849 138.441 109.88 139.163C110.922 139.872 112.244 140.232 113.847 140.24ZM151.198 123.113L147.58 124.117C147.356 123.514 147.023 122.927 146.582 122.356C146.153 121.775 145.564 121.294 144.816 120.915C144.068 120.537 143.108 120.344 141.938 120.338C140.336 120.33 138.999 120.692 137.927 121.426C136.867 122.147 136.335 123.071 136.33 124.196C136.325 125.196 136.685 125.987 137.41 126.571C138.134 127.154 139.269 127.643 140.812 128.037L144.694 129.011C147.033 129.592 148.773 130.47 149.916 131.646C151.058 132.811 151.625 134.308 151.617 136.138C151.61 137.638 151.172 138.977 150.303 140.154C149.446 141.331 148.248 142.257 146.711 142.931C145.174 143.605 143.388 143.937 141.354 143.926C138.684 143.913 136.476 143.322 134.732 142.154C132.987 140.986 131.887 139.287 131.431 137.057L135.253 136.122C135.61 137.533 136.293 138.593 137.301 139.303C138.321 140.013 139.655 140.372 141.302 140.381C143.177 140.39 144.668 140 145.773 139.21C146.891 138.409 147.452 137.446 147.457 136.321C147.461 135.412 147.146 134.649 146.513 134.032C145.879 133.404 144.904 132.933 143.587 132.619L139.228 131.574C136.833 130.994 135.076 130.104 133.956 128.905C132.848 127.695 132.298 126.186 132.306 124.38C132.313 122.902 132.733 121.598 133.568 120.466C134.414 119.334 135.56 118.447 137.006 117.807C138.464 117.167 140.113 116.851 141.954 116.861C144.544 116.874 146.576 117.453 148.048 118.597C149.532 119.741 150.582 121.246 151.198 123.113ZM165.341 144.118C163.682 144.109 162.178 143.789 160.828 143.157C159.479 142.514 158.409 141.593 157.619 140.396C156.829 139.187 156.438 137.731 156.446 136.026C156.452 134.526 156.753 133.312 157.348 132.383C157.943 131.443 158.737 130.708 159.728 130.179C160.719 129.65 161.811 129.258 163.006 129.003C164.211 128.737 165.423 128.527 166.639 128.374C168.231 128.178 169.521 128.031 170.511 127.934C171.511 127.825 172.239 127.641 172.695 127.382C173.162 127.123 173.397 126.67 173.4 126.022L173.4 125.886C173.408 124.204 172.954 122.895 172.037 121.958C171.133 121.022 169.754 120.549 167.902 120.539C165.981 120.53 164.474 120.942 163.379 121.778C162.284 122.613 161.513 123.507 161.066 124.459L157.254 123.076C157.943 121.488 158.858 120.254 159.998 119.374C161.15 118.482 162.402 117.863 163.756 117.518C165.122 117.162 166.463 116.987 167.781 116.993C168.622 116.998 169.588 117.105 170.678 117.315C171.779 117.514 172.84 117.923 173.86 118.542C174.891 119.161 175.745 120.091 176.421 121.333C177.097 122.575 177.431 124.236 177.421 126.316L177.344 143.565L173.321 143.545L173.337 139.999L173.132 139.998C172.857 140.565 172.4 141.171 171.761 141.815C171.121 142.46 170.272 143.006 169.213 143.456C168.155 143.905 166.864 144.125 165.341 144.118ZM165.971 140.507C167.562 140.515 168.904 140.21 169.998 139.59C171.103 138.971 171.936 138.168 172.497 137.183C173.07 136.197 173.359 135.159 173.364 134.068L173.38 130.386C173.209 130.59 172.833 130.775 172.253 130.943C171.684 131.099 171.024 131.237 170.274 131.359C169.534 131.468 168.812 131.567 168.107 131.654C167.414 131.73 166.851 131.796 166.419 131.85C165.373 131.981 164.395 132.198 163.484 132.5C162.585 132.791 161.856 133.236 161.296 133.835C160.748 134.423 160.472 135.229 160.467 136.252C160.461 137.649 160.973 138.709 162.004 139.43C163.046 140.14 164.369 140.499 165.971 140.507Z" fill="white"/>
</svg>
