<svg width="245" height="494" viewBox="0 0 245 494" fill="none" xmlns="http://www.w3.org/2000/svg">
<path d="M96.5491 365.818C71.5243 366.044 51.0545 345.283 50.8285 319.447C50.6024 293.612 70.7057 272.485 95.7304 272.26C120.755 272.035 144.581 292.766 144.807 318.601C145.033 344.437 121.574 365.593 96.5491 365.818Z" fill="white"/>
<path d="M92.7622 225.854C55.8639 228.195 23.7062 252.22 10.9653 286.915C2.58145 309.806 3.71778 336.265 14.0234 357.732C17.8198 365.658 87.7995 486.853 89.6247 488.611C92.3111 491.221 97.3502 491.251 99.8587 488.674C100.765 487.765 132.31 439.161 174.907 372.97C183.839 359.059 187.933 349.373 190.793 335.197C191.86 330.095 192.288 313.471 191.5 307.75C188.809 287.21 180.329 269.47 166.317 254.745C152.608 240.339 135.497 230.921 116.109 227.196C110.421 226.113 99.0595 225.45 92.7622 225.854ZM107.338 273.138C117.934 275.283 125.77 279.688 133.047 287.653C144.015 299.551 147.866 315.407 143.561 331.254C136.149 358.783 104.812 373.139 78.8862 361.001C66.2056 355.069 57.2878 344.262 53.3387 330.166C52.1981 326.042 52.0743 324.795 52.2613 317.544C52.4482 310.294 52.636 309.056 53.9876 304.997C56.6895 296.933 60.6973 290.613 66.6076 285.069C77.7397 274.48 92.5033 270.154 107.338 273.138Z" fill="white"/>
<path d="M93.4282 232.93C59.2553 235.09 29.4438 257.54 17.5991 289.989C9.80495 311.398 10.8222 336.153 20.3373 356.246C23.8425 363.664 88.4866 477.106 90.1745 478.753C92.6588 481.197 97.3252 481.229 99.6516 478.82C100.492 477.97 129.769 432.524 169.304 370.633C177.593 357.625 181.398 348.567 184.065 335.307C185.059 330.535 185.478 314.983 184.756 309.629C182.291 290.41 174.462 273.807 161.505 260.019C148.829 246.53 132.996 237.706 115.046 234.205C109.781 233.187 99.2603 232.557 93.4282 232.93ZM106.864 277.178C116.673 279.194 123.924 283.322 130.652 290.78C140.793 301.92 144.339 316.757 140.331 331.58C133.43 357.329 104.392 370.734 80.3992 359.357C68.6642 353.797 60.4201 343.679 56.7818 330.488C55.7309 326.628 55.618 325.462 55.8007 318.679C55.9834 311.896 56.159 310.737 57.4161 306.942C59.9288 299.399 63.6487 293.489 69.1292 288.307C79.4521 278.41 93.1297 274.375 106.864 277.178Z" fill="#FB0A0A"/>
<rect width="221.242" height="167.557" rx="20" transform="matrix(-0.000112628 -1 1 -0.000611239 17.0249 223.345)" fill="#C4C4C4"/>
<rect width="221.242" height="167.557" rx="20" transform="matrix(-0.000112628 -1 1 -0.000611239 17.0249 223.345)" fill="#C4C4C4"/>
<rect width="221.242" height="167.557" rx="20" transform="matrix(-0.000112628 -1 1 -0.000611239 17.0249 223.345)" fill="white"/>
<rect width="201.82" height="147.408" rx="20" transform="matrix(-0.000112628 -1 1 -0.000611239 27.6288 214.048)" fill="white"/>
<rect width="201.82" height="147.408" rx="20" transform="matrix(-0.000112628 -1 1 -0.000611239 27.6288 214.048)" fill="black"/>
<rect width="201.82" height="147.408" rx="20" transform="matrix(-0.000112628 -1 1 -0.000611239 27.6288 214.048)" fill="#FF0000"/>
<path d="M44.5728 53.12L54.8039 82.5592L55.213 82.5613L65.7089 53.2284L70.1406 53.2511L57.1654 88.0941L52.8018 88.0717L40.141 53.0973L44.5728 53.12ZM83.4126 88.7742C80.8899 88.7613 78.7163 88.1933 76.8918 87.0703C75.0787 85.936 73.6824 84.3606 72.7028 82.3442C71.7347 80.3165 71.2566 77.9617 71.2687 75.2799C71.2808 72.5981 71.7801 70.237 72.7665 68.1966C73.7644 66.1449 75.1466 64.5497 76.9131 63.411C78.6911 62.261 80.7618 61.6921 83.1254 61.7042C84.489 61.7112 85.8346 61.9454 87.1621 62.4067C88.4896 62.8681 89.6964 63.6129 90.7827 64.6412C91.8691 65.6582 92.7323 67.0035 93.3725 68.6773C94.0127 70.351 94.3273 72.4095 94.3163 74.8527L94.3086 76.5572L74.1271 76.4537L74.1427 72.9765L90.2334 73.059C90.2401 71.5817 89.9506 70.262 89.3649 69.0999C88.7906 67.9379 87.9652 67.0188 86.8887 66.3429C85.8235 65.6669 84.5637 65.3252 83.1091 65.3178C81.5069 65.3096 80.1188 65.7002 78.9447 66.4896C77.7821 67.2678 76.8855 68.2859 76.2548 69.5441C75.6241 70.8022 75.3056 72.1529 75.2991 73.596L75.2886 75.9142C75.2797 77.8914 75.6131 79.5693 76.2887 80.9478C76.9757 82.315 77.9312 83.3597 79.1553 84.0818C80.3794 84.7927 81.8039 85.1523 83.4289 85.1606C84.4857 85.166 85.4409 85.0232 86.2945 84.7321C87.1595 84.4297 87.9058 83.979 88.5335 83.3799C89.1613 82.7695 89.6477 82.0106 89.9927 81.1033L93.8741 82.2141C93.459 83.5302 92.7663 84.6857 91.7959 85.6808C90.8256 86.6645 89.6289 87.4311 88.206 87.9806C86.7831 88.5188 85.1853 88.7833 83.4126 88.7742ZM104.469 72.5865L104.398 88.3364L100.375 88.3157L100.493 62.1342L104.379 62.1541L104.361 66.245L104.702 66.2467C105.321 64.9203 106.258 63.8569 107.512 63.0565C108.765 62.2448 110.381 61.844 112.358 61.8541C114.131 61.8632 115.68 62.2348 117.006 62.9689C118.333 63.6916 119.362 64.7878 120.094 66.2575C120.826 67.7158 121.187 69.5586 121.177 71.7858L121.102 88.422L117.079 88.4014L117.153 72.0379C117.162 69.9811 116.635 68.3761 115.572 67.2229C114.51 66.0584 113.046 65.4713 111.183 65.4618C109.899 65.4552 108.75 65.7277 107.736 66.2793C106.733 66.831 105.94 67.6394 105.355 68.7046C104.771 69.7698 104.476 71.0638 104.469 72.5865ZM139.957 62.3366L139.942 65.7456L126.374 65.676L126.389 62.267L139.957 62.3366ZM130.372 56.0146L134.394 56.0352L134.282 80.9895C134.277 82.1259 134.438 82.979 134.765 83.5488C135.103 84.1074 135.533 84.4846 136.055 84.6805C136.588 84.865 137.15 84.9588 137.741 84.9619C138.185 84.9641 138.548 84.9433 138.833 84.8993C139.117 84.8439 139.344 84.7996 139.515 84.7664L140.317 88.3842C140.044 88.4851 139.663 88.5854 139.173 88.6852C138.684 88.7963 138.065 88.8499 137.315 88.8461C136.178 88.8403 135.066 88.5902 133.977 88.096C132.9 87.6018 132.006 86.8529 131.294 85.8493C130.594 84.8457 130.248 83.5825 130.254 82.0598L130.372 56.0146ZM153.592 89.2023C151.933 89.1938 150.428 88.8736 149.079 88.2416C147.73 87.5983 146.66 86.6781 145.87 85.4808C145.08 84.2722 144.689 82.8156 144.696 81.1111C144.703 79.6111 145.004 78.3967 145.599 77.468C146.194 76.5278 146.987 75.7932 147.978 75.2642C148.969 74.7352 150.062 74.3431 151.256 74.0878C152.462 73.8213 153.673 73.6116 154.89 73.4587C156.482 73.2624 157.772 73.1156 158.761 73.0184C159.762 72.9099 160.49 72.7261 160.946 72.4671C161.413 72.2081 161.648 71.7547 161.651 71.107L161.651 70.9707C161.659 69.2889 161.204 67.9797 160.288 67.0432C159.383 66.1067 158.005 65.6337 156.153 65.6242C154.232 65.6144 152.725 66.0271 151.63 66.8624C150.535 67.6977 149.764 68.5915 149.317 69.5437L145.505 68.1605C146.194 66.5731 147.108 65.3392 148.249 64.4587C149.4 63.5668 150.653 62.9482 152.007 62.6029C153.372 62.2463 154.714 62.0713 156.032 62.0781C156.873 62.0824 157.838 62.1896 158.928 62.3998C160.03 62.5986 161.091 63.0074 162.11 63.6263C163.142 64.2453 163.996 65.1758 164.672 66.4179C165.348 67.66 165.681 69.3208 165.672 71.4004L165.594 88.6502L161.572 88.6296L161.588 85.0841L161.383 85.0831C161.108 85.6499 160.651 86.2555 160.011 86.9C159.372 87.5444 158.523 88.0912 157.464 88.5403C156.405 88.9894 155.114 89.2101 153.592 89.2023ZM154.222 85.5918C155.813 85.6 157.155 85.2944 158.249 84.675C159.354 84.0556 160.187 83.2531 160.748 82.2673C161.321 81.2816 161.609 80.2433 161.614 79.1524L161.631 75.4706C161.46 75.6743 161.084 75.8599 160.503 76.0273C159.935 76.1835 159.275 76.3222 158.524 76.4433C157.785 76.5532 157.063 76.6517 156.358 76.739C155.665 76.815 155.102 76.8803 154.67 76.9349C153.624 77.0659 152.645 77.2825 151.735 77.5847C150.836 77.8755 150.107 78.3206 149.547 78.92C148.999 79.5082 148.723 80.3136 148.718 81.3363C148.712 82.734 149.224 83.7935 150.255 84.5147C151.297 85.2246 152.619 85.5836 154.222 85.5918ZM53.4951 146.076L42.7225 146.021L42.8797 111.112L54.1296 111.17C57.5159 111.187 60.4104 111.901 62.8132 113.311C65.216 114.71 67.0536 116.713 68.326 119.322C69.5984 121.92 70.2264 125.025 70.2101 128.639C70.1938 132.275 69.5319 135.402 68.2247 138.021C66.9175 140.628 65.0221 142.629 62.5385 144.026C60.055 145.411 57.0405 146.094 53.4951 146.076ZM46.9666 142.293L53.2392 142.325C56.1256 142.34 58.5201 141.795 60.4228 140.691C62.3255 139.587 63.7474 138.009 64.6885 135.957C65.6296 133.905 66.1065 131.459 66.1193 128.618C66.132 125.8 65.6827 123.371 64.7714 121.332C63.8602 119.282 62.4923 117.707 60.6677 116.607C58.8431 115.495 56.5672 114.932 53.84 114.918L47.0901 114.884L46.9666 142.293ZM87.6513 146.797C85.1286 146.784 82.955 146.216 81.1305 145.093C79.3174 143.958 77.921 142.383 76.9415 140.367C75.9733 138.339 75.4953 135.984 75.5074 133.302C75.5195 130.621 76.0187 128.26 77.0052 126.219C78.0031 124.167 79.3853 122.572 81.1518 121.433C82.9297 120.283 85.0005 119.715 87.3641 119.727C88.7277 119.734 90.0733 119.968 91.4007 120.429C92.7282 120.891 93.9351 121.635 95.0214 122.664C96.1077 123.681 96.971 125.026 97.6112 126.7C98.2514 128.374 98.566 130.432 98.555 132.875L98.5473 134.58L78.3658 134.476L78.3814 130.999L94.4721 131.081C94.4788 129.604 94.1893 128.285 93.6036 127.122C93.0293 125.96 92.2038 125.041 91.1273 124.365C90.0622 123.689 88.8023 123.348 87.3478 123.34C85.7456 123.332 84.3574 123.723 83.1834 124.512C82.0208 125.29 81.1242 126.308 80.4935 127.567C79.8628 128.825 79.5442 130.175 79.5377 131.619L79.5273 133.937C79.5184 135.914 79.8517 137.592 80.5273 138.97C81.2144 140.337 82.1699 141.382 83.3939 142.104C84.618 142.815 86.0426 143.175 87.6675 143.183C88.7243 143.189 89.6795 143.046 90.5331 142.755C91.3981 142.452 92.1445 142.001 92.7722 141.402C93.4 140.792 93.8863 140.033 94.2313 139.126L98.1127 140.237C97.6977 141.553 97.005 142.708 96.0346 143.703C95.0642 144.687 93.8676 145.454 92.4447 146.003C91.0218 146.541 89.424 146.806 87.6513 146.797ZM104.569 156.156L104.732 120.157L108.618 120.177L108.599 124.336L109.076 124.338C109.374 123.885 109.786 123.308 110.312 122.606C110.849 121.893 111.613 121.26 112.604 120.708C113.607 120.145 114.96 119.868 116.665 119.877C118.869 119.888 120.81 120.449 122.487 121.56C124.164 122.671 125.469 124.24 126.403 126.268C127.337 128.295 127.798 130.684 127.786 133.434C127.773 136.207 127.291 138.608 126.338 140.637C125.386 142.655 124.072 144.216 122.397 145.321C120.721 146.415 118.793 146.956 116.611 146.945C114.929 146.937 113.584 146.651 112.575 146.089C111.566 145.516 110.791 144.87 110.249 144.151C109.706 143.421 109.289 142.817 108.995 142.338L108.655 142.336L108.592 156.177L104.569 156.156ZM108.627 133.268C108.618 135.245 108.9 136.991 109.473 138.505C110.046 140.008 110.887 141.189 111.997 142.046C113.107 142.893 114.468 143.321 116.082 143.329C117.764 143.337 119.169 142.901 120.298 142.021C121.438 141.129 122.296 139.929 122.871 138.42C123.458 136.901 123.755 135.209 123.763 133.345C123.772 131.504 123.495 129.844 122.934 128.364C122.383 126.872 121.542 125.692 120.41 124.822C119.289 123.942 117.876 123.497 116.171 123.488C114.535 123.48 113.158 123.887 112.041 124.711C110.923 125.524 110.077 126.667 109.503 128.141C108.928 129.604 108.636 131.313 108.627 133.268ZM141.565 147.141C139.906 147.133 138.402 146.813 137.052 146.181C135.703 145.537 134.633 144.617 133.843 143.42C133.053 142.211 132.662 140.755 132.67 139.05C132.676 137.55 132.977 136.336 133.572 135.407C134.167 134.467 134.961 133.732 135.952 133.203C136.943 132.674 138.035 132.282 139.23 132.027C140.435 131.76 141.647 131.551 142.863 131.398C144.455 131.201 145.745 131.055 146.735 130.957C147.735 130.849 148.463 130.665 148.919 130.406C149.386 130.147 149.621 129.694 149.624 129.046L149.624 128.91C149.632 127.228 149.178 125.919 148.261 124.982C147.357 124.046 145.978 123.573 144.126 123.563C142.205 123.553 140.698 123.966 139.603 124.801C138.508 125.637 137.737 126.531 137.29 127.483L133.478 126.1C134.167 124.512 135.082 123.278 136.222 122.398C137.374 121.506 138.626 120.887 139.98 120.542C141.346 120.185 142.687 120.01 144.005 120.017C144.846 120.021 145.812 120.129 146.902 120.339C148.003 120.538 149.064 120.947 150.084 121.565C151.115 122.184 151.969 123.115 152.645 124.357C153.321 125.599 153.655 127.26 153.645 129.339L153.568 146.589L149.545 146.569L149.561 143.023L149.356 143.022C149.081 143.589 148.624 144.195 147.985 144.839C147.345 145.483 146.496 146.03 145.437 146.479C144.379 146.929 143.088 147.149 141.565 147.141ZM142.195 143.531C143.786 143.539 145.128 143.233 146.222 142.614C147.327 141.995 148.16 141.192 148.721 140.206C149.294 139.221 149.583 138.182 149.588 137.091L149.604 133.41C149.433 133.613 149.057 133.799 148.477 133.966C147.908 134.123 147.248 134.261 146.498 134.382C145.758 134.492 145.036 134.591 144.331 134.678C143.638 134.754 143.075 134.819 142.643 134.874C141.597 135.005 140.619 135.222 139.708 135.524C138.809 135.815 138.08 136.26 137.52 136.859C136.972 137.447 136.696 138.253 136.691 139.275C136.685 140.673 137.197 141.733 138.228 142.454C139.27 143.164 140.593 143.523 142.195 143.531Z" fill="white"/>
</svg>
