<svg width="542" height="198" viewBox="0 0 542 198" fill="none" xmlns="http://www.w3.org/2000/svg">
<path d="M128.699 96.7171C128.623 71.6915 149.506 51.3457 175.342 51.2735C201.178 51.2013 222.185 71.43 222.261 96.4557C222.337 121.481 201.465 145.184 175.629 145.256C149.792 145.328 128.776 121.743 128.699 96.7171Z" fill="white"/>
<path d="M268.684 93.7643C266.563 56.8527 242.73 24.5525 208.111 11.6052C185.271 3.0852 158.805 4.06394 137.277 14.2416C129.329 17.9907 7.7196 87.2474 5.95041 89.0621C3.3242 91.7329 3.26468 96.7718 5.82632 99.2955C6.72973 100.208 55.1454 132.041 121.081 175.032C134.939 184.046 144.601 188.198 158.759 191.142C163.855 192.239 180.475 192.767 186.201 192.013C206.758 189.444 224.548 181.07 239.356 167.145C253.843 153.522 263.362 136.468 267.203 117.102C268.32 111.421 269.05 100.064 268.684 93.7643ZM221.314 108.058C219.106 118.642 214.655 126.451 206.646 133.68C194.683 144.577 178.805 148.334 162.983 143.935C135.499 136.358 121.33 104.937 133.622 79.0837C139.629 66.4387 150.489 57.5853 164.609 53.7203C168.74 52.6042 169.987 52.4879 177.236 52.718C184.485 52.9481 185.723 53.1433 189.773 54.5191C197.821 57.269 204.117 61.3143 209.626 67.2575C220.148 78.4525 224.386 93.2416 221.314 108.058Z" fill="white"/>
<path d="M261.605 94.3882C259.648 60.2031 237.375 30.2584 204.998 18.2207C183.635 10.2992 158.875 11.169 138.726 20.5643C131.287 24.0252 17.4619 87.9926 15.8053 89.6706C13.3463 92.1404 13.2868 96.8065 15.6814 99.1472C16.5259 99.9931 61.7974 129.539 123.452 169.442C136.41 177.809 145.446 181.668 158.689 184.413C163.456 185.436 179.005 185.948 184.362 185.258C203.596 182.907 220.246 175.177 234.11 162.303C247.674 149.707 256.593 133.927 260.201 115.998C261.25 110.739 261.942 100.222 261.605 94.3882ZM217.276 107.56C215.202 117.357 211.032 124.583 203.534 131.267C192.333 141.341 177.475 144.799 162.677 140.703C136.97 133.649 123.738 104.531 135.257 80.6066C140.887 68.9049 151.054 60.7212 164.267 57.1615C168.132 56.1336 169.299 56.0277 176.081 56.2508C182.863 56.4739 184.02 56.6563 187.808 57.936C195.336 60.4936 201.223 64.2486 206.373 69.7599C216.208 80.1416 220.161 93.8429 217.276 107.56Z" fill="#FB0A0A"/>
<rect width="270.22" height="173.873" rx="20" transform="matrix(0.999983 0.0058594 -0.00523566 0.999986 269.701 8.45026)" fill="#C4C4C4"/>
<rect width="270.22" height="173.873" rx="20" transform="matrix(0.999983 0.0058594 -0.00523566 0.999986 269.701 8.45026)" fill="#C4C4C4"/>
<rect width="270.22" height="173.873" rx="20" transform="matrix(0.999983 0.0058594 -0.00523566 0.999986 269.701 8.45026)" fill="white"/>
<rect width="246.499" height="152.965" rx="20" transform="matrix(0.999983 0.0058594 -0.00523566 0.999986 280.991 19.5213)" fill="white"/>
<rect width="246.499" height="152.965" rx="20" transform="matrix(0.999983 0.0058594 -0.00523566 0.999986 280.991 19.5213)" fill="black"/>
<rect width="246.499" height="152.965" rx="20" transform="matrix(0.999983 0.0058594 -0.00523566 0.999986 280.991 19.5213)" fill="#FF0000"/>
<path d="M340.991 47.1198L351.222 76.559L351.631 76.5611L362.127 47.2282L366.559 47.2509L353.583 82.0939L349.22 82.0716L336.559 47.0971L340.991 47.1198ZM379.831 82.774C377.308 82.7611 375.134 82.1931 373.31 81.0701C371.497 79.9358 370.1 78.3604 369.121 76.344C368.153 74.3163 367.675 71.9615 367.687 69.2797C367.699 66.5979 368.198 64.2368 369.185 62.1964C370.182 60.1447 371.565 58.5495 373.331 57.4108C375.109 56.2608 377.18 55.6919 379.543 55.704C380.907 55.711 382.253 55.9452 383.58 56.4065C384.908 56.8679 386.114 57.6127 387.201 58.641C388.287 59.658 389.15 61.0033 389.79 62.6771C390.431 64.3509 390.745 66.4093 390.734 68.8525L390.727 70.557L370.545 70.4535L370.561 66.9763L386.651 67.0588C386.658 65.5815 386.369 64.2618 385.783 63.0997C385.209 61.9377 384.383 61.0187 383.307 60.3427C382.241 59.6668 380.982 59.3251 379.527 59.3176C377.925 59.3094 376.537 59.7 375.363 60.4894C374.2 61.2676 373.303 62.2857 372.673 63.5439C372.042 64.802 371.724 66.1527 371.717 67.5958L371.707 69.914C371.698 71.8913 372.031 73.5691 372.707 74.9476C373.394 76.3148 374.349 77.3595 375.573 78.0817C376.797 78.7925 378.222 79.1521 379.847 79.1604C380.904 79.1658 381.859 79.023 382.712 78.7319C383.577 78.4295 384.324 77.9788 384.951 77.3798C385.579 76.7693 386.066 76.0104 386.411 75.1031L390.292 76.2139C389.877 77.53 389.184 78.6856 388.214 79.6806C387.244 80.6643 386.047 81.4309 384.624 81.9804C383.201 82.5186 381.603 82.7831 379.831 82.774ZM400.887 66.5863L400.816 82.3362L396.793 82.3155L396.911 56.134L400.797 56.1539L400.779 60.2448L401.12 60.2465C401.739 58.9201 402.676 57.8568 403.93 57.0564C405.183 56.2446 406.799 55.8438 408.776 55.8539C410.549 55.863 412.098 56.2346 413.424 56.9687C414.751 57.6914 415.78 58.7876 416.512 60.2573C417.244 61.7156 417.605 63.5584 417.595 65.7856L417.52 82.4218L413.497 82.4012L413.571 66.0377C413.58 63.9809 413.053 62.3759 411.99 61.2227C410.928 60.0582 409.464 59.4711 407.601 59.4616C406.317 59.455 405.168 59.7275 404.154 60.2791C403.151 60.8308 402.358 61.6393 401.773 62.7045C401.189 63.7697 400.893 65.0636 400.887 66.5863ZM436.375 56.3364L436.36 59.7454L422.792 59.6758L422.807 56.2668L436.375 56.3364ZM426.79 50.0144L430.812 50.035L430.7 74.9893C430.695 76.1257 430.856 76.9788 431.183 77.5487C431.521 78.1072 431.951 78.4844 432.473 78.6803C433.006 78.8648 433.568 78.9586 434.159 78.9617C434.603 78.9639 434.966 78.9431 435.251 78.8991C435.535 78.8437 435.762 78.7994 435.933 78.7662L436.735 82.384C436.462 82.4849 436.081 82.5852 435.591 82.685C435.102 82.7961 434.483 82.8497 433.733 82.8459C432.596 82.8401 431.484 82.59 430.395 82.0958C429.318 81.6016 428.423 80.8527 427.712 79.8491C427.012 78.8455 426.665 77.5823 426.672 76.0596L426.79 50.0144ZM450.01 83.2021C448.351 83.1936 446.846 82.8734 445.497 82.2414C444.148 81.5982 443.078 80.6779 442.288 79.4806C441.498 78.272 441.107 76.8155 441.114 75.1109C441.121 73.6109 441.422 72.3966 442.017 71.4678C442.612 70.5276 443.405 69.7931 444.396 69.264C445.387 68.735 446.48 68.3429 447.674 68.0877C448.88 67.8211 450.091 67.6114 451.308 67.4586C452.9 67.2622 454.19 67.1154 455.179 67.0182C456.18 66.9097 456.908 66.7259 457.364 66.4669C457.831 66.2079 458.066 65.7546 458.069 65.1068L458.069 64.9705C458.077 63.2887 457.622 61.9795 456.706 61.043C455.801 60.1065 454.423 59.6335 452.571 59.624C450.65 59.6142 449.143 60.0269 448.048 60.8622C446.953 61.6975 446.182 62.5913 445.735 63.5436L441.923 62.1604C442.612 60.573 443.526 59.339 444.667 58.4585C445.818 57.5666 447.071 56.9481 448.425 56.6027C449.79 56.2461 451.132 56.0711 452.45 56.0779C453.291 56.0822 454.256 56.1894 455.346 56.3996C456.448 56.5984 457.508 57.0073 458.528 57.6261C459.56 58.2451 460.414 59.1756 461.09 60.4177C461.766 61.6598 462.099 63.3207 462.09 65.4002L462.012 82.65L457.99 82.6294L458.006 79.084L457.801 79.0829C457.526 79.6497 457.069 80.2553 456.429 80.8998C455.79 81.5442 454.941 82.091 453.882 82.5401C452.823 82.9893 451.532 83.2099 450.01 83.2021ZM450.64 79.5917C452.231 79.5998 453.573 79.2942 454.667 78.6748C455.772 78.0554 456.605 77.2529 457.166 76.2671C457.739 75.2814 458.027 74.2431 458.032 73.1522L458.049 69.4704C457.878 69.6741 457.502 69.8597 456.921 70.0271C456.353 70.1833 455.693 70.322 454.942 70.4431C454.203 70.553 453.481 70.6516 452.776 70.7389C452.083 70.8148 451.52 70.8801 451.088 70.9347C450.042 71.0657 449.063 71.2823 448.153 71.5845C447.254 71.8753 446.525 72.3205 445.965 72.9199C445.417 73.508 445.141 74.3134 445.136 75.3361C445.13 76.7338 445.642 77.7933 446.673 78.5145C447.715 79.2244 449.037 79.5834 450.64 79.5917ZM339.14 140.021L339.298 105.112L360.366 105.22L360.349 108.97L343.508 108.884L343.455 120.679L359.205 120.76L359.188 124.51L343.438 124.429L343.385 136.292L360.498 136.38L360.481 140.13L339.14 140.021ZM377.166 140.761C374.984 140.75 373.06 140.189 371.395 139.078C369.73 137.956 368.43 136.381 367.496 134.353C366.562 132.315 366.101 129.909 366.114 127.136C366.126 124.386 366.608 122.002 367.561 119.984C368.513 117.966 369.832 116.411 371.519 115.317C373.206 114.223 375.152 113.682 377.356 113.694C379.061 113.702 380.406 113.993 381.392 114.567C382.389 115.128 383.148 115.769 383.667 116.487C384.198 117.195 384.61 117.776 384.904 118.232L385.245 118.234L385.303 105.348L389.325 105.368L389.168 140.277L385.282 140.257L385.3 136.235L384.823 136.232C384.525 136.708 384.102 137.308 383.553 138.032C383.005 138.746 382.223 139.384 381.209 139.947C380.196 140.498 378.848 140.77 377.166 140.761ZM377.728 137.15C379.341 137.159 380.707 136.745 381.824 135.91C382.942 135.063 383.794 133.892 384.38 132.395C384.966 130.886 385.264 129.143 385.273 127.166C385.281 125.212 385.005 123.5 384.444 122.031C383.882 120.551 383.046 119.399 381.936 118.575C380.826 117.74 379.453 117.318 377.817 117.31C376.112 117.301 374.69 117.731 373.55 118.6C372.421 119.458 371.569 120.63 370.994 122.116C370.431 123.59 370.145 125.248 370.137 127.089C370.128 128.952 370.405 130.647 370.966 132.172C371.539 133.687 372.385 134.896 373.506 135.799C374.639 136.691 376.046 137.142 377.728 137.15ZM397.094 140.318L397.212 114.136L401.235 114.157L401.117 140.338L397.094 140.318ZM399.277 109.783C398.493 109.779 397.818 109.509 397.252 108.972C396.698 108.435 396.423 107.791 396.426 107.041C396.429 106.291 396.711 105.651 397.27 105.119C397.84 104.588 398.518 104.325 399.302 104.329C400.086 104.333 400.755 104.603 401.31 105.14C401.875 105.677 402.157 106.321 402.153 107.071C402.15 107.821 401.863 108.461 401.292 108.992C400.733 109.524 400.061 109.787 399.277 109.783ZM420.262 114.254L420.246 117.664L406.133 117.591L406.148 114.182L420.262 114.254ZM410.257 140.385L410.392 110.59C410.398 109.09 410.756 107.842 411.465 106.846C412.174 105.849 413.093 105.104 414.22 104.61C415.347 104.116 416.536 103.872 417.786 103.878C418.774 103.883 419.581 103.967 420.205 104.129C420.829 104.291 421.294 104.441 421.601 104.579L420.426 108.051C420.222 107.981 419.938 107.895 419.575 107.791C419.223 107.687 418.757 107.633 418.178 107.63C416.848 107.623 415.887 107.954 415.293 108.621C414.71 109.288 414.416 110.27 414.41 111.565L414.28 140.406L410.257 140.385ZM425.781 140.465L425.899 114.283L429.922 114.304L429.804 140.486L425.781 140.465ZM427.964 109.93C427.18 109.926 426.505 109.656 425.94 109.119C425.385 108.582 425.11 107.938 425.113 107.188C425.116 106.438 425.398 105.798 425.957 105.267C426.528 104.735 427.205 104.472 427.989 104.476C428.773 104.48 429.442 104.75 429.997 105.287C430.562 105.824 430.844 106.468 430.84 107.218C430.837 107.968 430.55 108.608 429.979 109.139C429.42 109.671 428.748 109.934 427.964 109.93ZM447.806 141.123C445.351 141.111 443.24 140.52 441.473 139.352C439.705 138.184 438.349 136.58 437.403 134.542C436.458 132.503 435.991 130.176 436.003 127.563C436.015 124.904 436.514 122.56 437.501 120.53C438.498 118.49 439.881 116.901 441.647 115.762C443.425 114.612 445.496 114.043 447.859 114.055C449.7 114.065 451.358 114.414 452.832 115.103C454.306 115.793 455.512 116.753 456.45 117.986C457.387 119.218 457.966 120.652 458.186 122.29L454.163 122.269C453.862 121.075 453.185 120.014 452.132 119.088C451.091 118.151 449.684 117.678 447.911 117.669C446.343 117.661 444.966 118.063 443.781 118.875C442.607 119.676 441.687 120.813 441.021 122.287C440.367 123.75 440.035 125.47 440.026 127.447C440.017 129.47 440.327 131.233 440.957 132.736C441.598 134.239 442.502 135.409 443.668 136.244C444.847 137.08 446.231 137.502 447.822 137.51C448.867 137.515 449.817 137.338 450.671 136.979C451.525 136.62 452.249 136.101 452.843 135.422C453.437 134.743 453.861 133.927 454.115 132.974L458.138 132.994C457.904 134.539 457.335 135.928 456.431 137.162C455.54 138.385 454.359 139.356 452.89 140.076C451.432 140.784 449.737 141.133 447.806 141.123ZM463.984 140.661L464.102 114.479L468.125 114.5L468.007 140.682L463.984 140.661ZM466.167 110.126C465.383 110.122 464.708 109.852 464.142 109.315C463.588 108.778 463.312 108.134 463.316 107.384C463.319 106.634 463.6 105.994 464.16 105.462C464.73 104.931 465.407 104.668 466.192 104.672C466.976 104.676 467.645 104.946 468.199 105.483C468.765 106.02 469.046 106.664 469.043 107.414C469.04 108.164 468.753 108.804 468.182 109.335C467.623 109.867 466.951 110.13 466.167 110.126ZM486.008 141.319C483.645 141.307 481.573 140.734 479.794 139.6C478.027 138.466 476.647 136.885 475.657 134.857C474.677 132.829 474.193 130.463 474.206 127.759C474.218 125.031 474.723 122.653 475.721 120.624C476.73 118.595 478.123 117.023 479.901 115.907C481.69 114.791 483.767 114.239 486.13 114.251C488.494 114.264 490.559 114.837 492.327 115.971C494.106 117.105 495.485 118.691 496.465 120.731C497.456 122.77 497.945 125.153 497.933 127.88C497.92 130.585 497.41 132.946 496.401 134.963C495.403 136.981 494.009 138.548 492.22 139.664C490.443 140.78 488.372 141.331 486.008 141.319ZM486.025 137.706C487.82 137.715 489.299 137.262 490.462 136.348C491.626 135.433 492.489 134.227 493.053 132.73C493.616 131.233 493.902 129.61 493.91 127.86C493.918 126.11 493.647 124.478 493.097 122.963C492.547 121.449 491.694 120.223 490.539 119.285C489.384 118.348 487.909 117.874 486.114 117.865C484.318 117.856 482.839 118.314 481.676 119.24C480.513 120.166 479.649 121.383 479.085 122.892C478.522 124.4 478.236 126.029 478.228 127.779C478.22 129.529 478.491 131.156 479.041 132.658C479.592 134.161 480.444 135.376 481.599 136.302C482.754 137.229 484.229 137.696 486.025 137.706Z" fill="white"/>
</svg>
